<svg xmlns="http://www.w3.org/2000/svg" height="48" width="48" viewBox="0 0 48 48"><g class="nc-icon-wrapper"><path d="M45.5,32.131l-21-12a1,1,0,0,0-.992,0l-21,12A1,1,0,0,0,2.137,33.5a.986.986,0,0,0,.371.371l21,12a1,1,0,0,0,.992,0l21-12a1,1,0,0,0,0-1.736Z" class="fill-current text-slate-600"></path><path d="M45.5,23.132l-21-12a1,1,0,0,0-.992,0l-21,12a1,1,0,0,0,0,1.736l21,12a1,1,0,0,0,.992,0l21-12a1,1,0,0,0,.371-1.365A.986.986,0,0,0,45.5,23.132Z" class="fill-current text-slate-500"></path><path d="M45.5,14.132l-21-12a1,1,0,0,0-.992,0l-21,12a1,1,0,0,0,0,1.736l21,12a1,1,0,0,0,.992,0l21-12a1,1,0,0,0,0-1.736Z" class="fill-current text-slate-400"></path></g></svg>
