<svg xmlns="http://www.w3.org/2000/svg" height="48" width="48" viewBox="0 0 48 48"><g class="nc-icon-wrapper"><path d="M24,6A22.994,22.994,0,0,0,4.728,41.546,1,1,0,0,0,5.565,42h36.87a1,1,0,0,0,.837-.454A22.994,22.994,0,0,0,24,6Z" class="fill-current text-slate-500"></path><path d="M39.495,37a.986.986,0,0,1-.411-.089,1,1,0,0,1-.5-1.323A16,16,0,1,0,8,29a15.873,15.873,0,0,0,1.415,6.588,1,1,0,1,1-1.822.824A18,18,0,1,1,42,29a17.859,17.859,0,0,1-1.593,7.412A1,1,0,0,1,39.495,37Z" class="fill-current text-slate-600"></path><path d="M8.505,37a1,1,0,0,1-.912-.588,18.012,18.012,0,0,1,3.658-20.118,1,1,0,0,1,1.416,1.412A16.014,16.014,0,0,0,9.415,35.588a1,1,0,0,1-.5,1.323A.986.986,0,0,1,8.505,37Z" class="fill-current text-slate-400"></path><path d="M26.121,31.121a3,3,0,0,1-4.243,0c-.8-.8-10.552-13.1-11.662-14.5a1,1,0,0,1,1.405-1.4c1.4,1.11,13.7,10.862,14.5,11.663A3,3,0,0,1,26.121,31.121Z" class="fill-current text-slate-400"></path></g></svg>
