<svg xmlns="http://www.w3.org/2000/svg" height="48" width="48" viewBox="0 0 48 48"><g class="nc-icon-wrapper"><path d="M38,23a1,1,0,0,1-.707-.293l-6-6a1,1,0,0,1,0-1.414l8-8a1,1,0,0,1,1.414,0l6,6a1,1,0,0,1,0,1.414l-2,2a1,1,0,0,1-1.414,0L41,14.414,38.414,17l2.293,2.293a1,1,0,0,1,0,1.414l-2,2A1,1,0,0,1,38,23Z" class="fill-current text-slate-600"></path><path d="M44.061,3.939a1.5,1.5,0,0,0-2.122,0L17.923,27.956a10.027,10.027,0,1,0,2.121,2.121L44.061,6.061A1.5,1.5,0,0,0,44.061,3.939ZM12,43a7,7,0,1,1,4.914-11.978c.011.012.014.027.025.039s.027.014.039.025A6.995,6.995,0,0,1,12,43Z" class="fill-current text-slate-400"></path></g></svg>
