<svg xmlns="http://www.w3.org/2000/svg" height="48" width="48" viewBox="0 0 48 48"><title>lock</title><g class="nc-icon-wrapper"><path d="M36,26H32V13a8,8,0,0,0-16,0V26H12V13a12,12,0,0,1,24,0Z" class="fill-current text-slate-500"></path><path d="M40,20H8a3,3,0,0,0-3,3V44a3,3,0,0,0,3,3H40a3,3,0,0,0,3-3V23A3,3,0,0,0,40,20Z" class="fill-current text-slate-400"></path><path d="M28,31a4,4,0,1,0-6,3.445V40a1,1,0,0,0,1,1h2a1,1,0,0,0,1-1V34.445A3.982,3.982,0,0,0,28,31Z" class="fill-current text-slate-600"></path></g></svg>
