<svg xmlns="http://www.w3.org/2000/svg" height="48" width="48" viewBox="0 0 48 48"><title>tag</title><g class="nc-icon-wrapper"><path d="M44.536,24.121,22.708,2.293A1,1,0,0,0,22,2H3A1,1,0,0,0,2,3V22a1,1,0,0,0,.293.707L24.122,44.535a5.006,5.006,0,0,0,7.071,0L44.536,31.192A5,5,0,0,0,44.536,24.121ZM14,18a4,4,0,1,1,4-4A4,4,0,0,1,14,18Z" class="fill-current text-slate-400"></path><path d="M14,19a5,5,0,1,1,5-5A5.006,5.006,0,0,1,14,19Zm0-8a3,3,0,1,0,3,3A3,3,0,0,0,14,11Z" class="fill-current text-slate-600"></path></g></svg>
