<svg xmlns="http://www.w3.org/2000/svg" height="48" width="48" viewBox="0 0 48 48"><g class="nc-icon-wrapper"><path d="M32.874,10.405a.99.99,0,0,0-.353-.369l-8-4.889a1,1,0,0,0-1.042,0l-8,4.889a.99.99,0,0,0-.353.369L24,15.828Z" class="fill-current text-slate-400"></path><path d="M15.126,10.405a1,1,0,0,0-.126.484v8.878a1,1,0,0,0,.479.853l8,4.889a1,1,0,0,0,.521.147V15.828Z" class="fill-current text-slate-500"></path><path d="M32.874,10.405a1,1,0,0,1,.126.484v8.878a1,1,0,0,1-.479.853l-8,4.889a1,1,0,0,1-.521.147V15.828Z" class="fill-current text-slate-600"></path><path d="M47.874,19.589a.99.99,0,0,0-.353-.369l-8-4.889a1,1,0,0,0-1.042,0l-8,4.889a.99.99,0,0,0-.353.369L39,25.013Z" class="fill-current text-slate-400"></path><path d="M30.126,19.589a1,1,0,0,0-.126.485v8.878a1,1,0,0,0,.479.853l8,4.889a1,1,0,0,0,.521.147V25.013Z" class="fill-current text-slate-500"></path><path d="M47.874,19.589a1,1,0,0,1,.126.485v8.878a1,1,0,0,1-.479.853l-8,4.889a1,1,0,0,1-.521.147V25.013Z" class="fill-current text-slate-600"></path><path d="M17.874,19.589a.99.99,0,0,0-.353-.369l-8-4.889a1,1,0,0,0-1.042,0l-8,4.889a.99.99,0,0,0-.353.369L9,25.013Z" class="fill-current text-slate-400"></path><path d="M.126,19.589A1,1,0,0,0,0,20.074v8.878a1,1,0,0,0,.479.853l8,4.889A1,1,0,0,0,9,34.841V25.013Z" class="fill-current text-slate-500"></path><path d="M17.874,19.589a1,1,0,0,1,.126.485v8.878a1,1,0,0,1-.479.853l-8,4.889A1,1,0,0,1,9,34.841V25.013Z" class="fill-current text-slate-600"></path><path d="M32.874,29.577a.99.99,0,0,0-.353-.369l-8-4.889a1,1,0,0,0-1.042,0l-8,4.889a.99.99,0,0,0-.353.369L24,35Z" class="fill-current text-slate-400"></path><path d="M15.126,29.577a1,1,0,0,0-.126.484v8.878a1,1,0,0,0,.479.853l8,4.889a1,1,0,0,0,.521.147V35Z" class="fill-current text-slate-500"></path><path d="M32.874,29.577a1,1,0,0,1,.126.484v8.878a1,1,0,0,1-.479.853l-8,4.889a1,1,0,0,1-.521.147V35Z" class="fill-current text-slate-600"></path></g></svg>
