<?xml version="1.0" encoding="UTF-8" standalone="no"?>
<!DOCTYPE svg PUBLIC "-//W3C//DTD SVG 1.1//EN" "http://www.w3.org/Graphics/SVG/1.1/DTD/svg11.dtd">
<svg width="100%" height="100%" viewBox="0 0 728 880" version="1.1" xmlns="http://www.w3.org/2000/svg" xmlns:xlink="http://www.w3.org/1999/xlink" xml:space="preserve" xmlns:serif="http://www.serif.com/" style="fill-rule:evenodd;clip-rule:evenodd;stroke-linejoin:round;stroke-miterlimit:2;">
    <g transform="matrix(4.16667,0,0,4.16667,-113.021,-991.975)">
        <path d="M88.07,405.461C90.882,399.37 84.995,378.427 75.188,384.261C69.224,388.622 46.9,406.223 45.51,410.03C43.986,414.201 52.939,428.806 56.049,430.603C59.16,432.399 81.999,418.618 88.07,405.461Z" style="fill:rgb(147,30,44);fill-rule:nonzero;"/>
    </g>
    <g transform="matrix(4.16667,0,0,4.16667,-113.021,-991.975)">
        <path d="M52.735,403.328C66.194,414.034 62.32,427.085 56.814,430.909C56.814,430.909 43.66,433.05 43.66,418.826C43.66,404.602 52.735,403.328 52.735,403.328Z" style="fill:rgb(102,48,58);fill-rule:nonzero;"/>
    </g>
    <g transform="matrix(4.16667,0,0,4.16667,-113.021,-991.975)">
        <path d="M91.169,436.832C88.726,436.641 85.825,436.239 85.281,435.661C84.737,435.082 85.002,431.997 87.121,431.828C89.239,431.66 97.783,432.991 97.783,432.991L91.169,436.832Z" style="fill:rgb(244,162,104);fill-rule:nonzero;"/>
    </g>
    <g transform="matrix(4.16667,0,0,4.16667,-113.021,-991.975)">
        <path d="M55.61,275.61L62.327,263.632L59.132,238.074L49.32,262.145L51.83,276.597L55.61,275.61Z" style="fill:rgb(185,211,207);fill-rule:nonzero;"/>
    </g>
    <g transform="matrix(4.16667,0,0,4.16667,-113.021,-991.975)">
        <path d="M127.781,383.734L146.113,432.835L159.084,430.552C158.676,414.238 151.385,384.268 127.781,383.734Z" style="fill:rgb(187,35,40);fill-rule:nonzero;"/>
    </g>
    <g transform="matrix(4.16667,0,0,4.16667,-113.021,-991.975)">
        <path d="M122.988,434.508C117.105,433.331 106.226,438.233 106.226,438.233L102.732,449.21L143.813,449.21C143.813,449.21 128.871,435.684 122.988,434.508Z" style="fill:rgb(125,67,65);fill-rule:nonzero;"/>
    </g>
    <g transform="matrix(4.16667,0,0,4.16667,-113.021,-991.975)">
        <path d="M119.59,387.462C133.751,397.067 124.487,434.304 108.608,449.21L100.121,449.21C97.586,449.21 95.61,447.021 95.875,444.501C96.74,436.262 98.711,419.486 101.019,412.946C104.13,404.124 119.59,387.462 119.59,387.462Z" style="fill:rgb(125,67,65);fill-rule:nonzero;"/>
    </g>
    <g transform="matrix(4.16667,0,0,4.16667,-113.021,-991.975)">
        <path d="M160.311,434.207C153.934,433.007 145.117,438.008 145.117,438.008L146.243,449.21L187.323,449.21C187.323,449.21 166.689,435.408 160.311,434.207Z" style="fill:rgb(158,97,93);fill-rule:nonzero;"/>
    </g>
    <g transform="matrix(4.16667,0,0,4.16667,-113.021,-991.975)">
        <path d="M169.529,446.811C158.93,444.397 150.703,439.602 150.164,435.717C147.245,436.803 145.117,438.008 145.117,438.008L146.243,449.21L187.323,449.21C187.323,449.21 186.58,448.712 185.335,447.901C181.288,448.52 175.635,448.203 169.529,446.811Z" style="fill:rgb(146,86,82);fill-rule:nonzero;"/>
    </g>
    <g transform="matrix(4.16667,0,0,4.16667,-113.021,-991.975)">
        <path d="M137.116,386.202C155.318,396.002 161.725,433.999 152.118,449.21L147.009,449.21C142.034,449.21 137.531,446.271 135.539,441.712C131.82,433.201 126.31,419.731 125.915,413.805C125.314,404.803 137.116,386.202 137.116,386.202Z" style="fill:rgb(146,86,82);fill-rule:nonzero;"/>
    </g>
    <g transform="matrix(4.16667,0,0,4.16667,-113.021,-991.975)">
        <path d="M155.291,441.348C149.594,439.687 143.179,431.818 140.341,415.227C138.413,403.956 138.505,393.838 140.243,388.251C139.242,387.477 138.202,386.786 137.116,386.202C137.116,386.202 125.314,404.803 125.915,413.805C126.361,420.503 133.344,436.841 136.887,444.76C138.099,447.469 140.785,449.21 143.753,449.21L152.118,449.21C153.143,447.587 156.473,444.709 157.138,442.63C156.945,442.714 155.491,441.407 155.291,441.348Z" style="fill:rgb(146,86,82);fill-rule:nonzero;"/>
    </g>
    <g transform="matrix(4.16667,0,0,4.16667,-113.021,-991.975)">
        <path d="M139.65,387.468C110.583,372.48 108.778,394.455 102.239,408.12C95.154,419.247 95.662,442.838 95.662,442.838C111.032,442.872 145.013,444.011 159.084,430.552C153.616,398.814 151.131,395.884 139.65,387.468Z" style="fill:rgb(167,33,40);fill-rule:nonzero;"/>
    </g>
    <g transform="matrix(4.16667,0,0,4.16667,-113.021,-991.975)">
        <path d="M145.639,392.216C141.06,396.805 139.937,411.358 143.327,427.784C144.065,431.362 144.965,434.775 145.983,437.95C151.145,436.182 155.695,433.793 159.084,430.551C154.73,405.275 152.261,398.272 145.639,392.216Z" style="fill:rgb(187,35,40);fill-rule:nonzero;"/>
    </g>
    <g transform="matrix(4.16667,0,0,4.16667,-113.021,-991.975)">
        <path d="M139.808,389.185C137.06,383.852 123.502,380.043 112.072,386.363C100.643,392.681 91.569,412.172 95.458,420.049C99.347,427.927 114.414,423.819 125.844,417.5C137.273,411.182 142.075,393.582 139.808,389.185Z" style="fill:rgb(102,48,58);fill-rule:nonzero;"/>
    </g>
    <g transform="matrix(4.16667,0,0,4.16667,-113.021,-991.975)">
        <path d="M100.911,418.406C124.314,417.406 130.582,413.338 133.382,409.337C136.183,405.337 141.383,392.402 138.183,388.801C134.982,385.201 119.914,377.652 109.912,384.027C99.91,390.402 100.911,418.406 100.911,418.406Z" style="fill:rgb(187,35,40);fill-rule:nonzero;"/>
    </g>
    <g transform="matrix(4.16667,0,0,4.16667,-113.021,-991.975)">
        <path d="M73.917,385.234C63.648,403.523 78.398,412.546 83.359,417.778C91.436,426.294 121.375,421.029 123.6,418.543C125.825,416.058 128.976,392.536 126.01,386.448C123.044,380.36 106.359,380.795 99.5,383.658C92.641,386.52 76.327,380.941 73.917,385.234Z" style="fill:rgb(147,30,44);fill-rule:nonzero;"/>
    </g>
    <g transform="matrix(4.16667,0,0,4.16667,-113.021,-991.975)">
        <path d="M108.43,422.071C104.86,405.967 108.913,392.8 108.913,392.8L118.428,421.208L108.43,422.071Z" style="fill:rgb(147,30,44);fill-rule:nonzero;"/>
    </g>
    <g transform="matrix(4.16667,0,0,4.16667,-113.021,-991.975)">
        <path d="M75.188,384.261C72.333,386.349 65.728,391.473 59.464,396.663C56.681,398.995 57.94,403.989 58.716,405.211C61.222,409.161 69.99,403.391 76.443,397.006C79.918,393.568 82.437,389.556 83.642,385.964C81.402,383.393 78.522,382.278 75.188,384.261Z" style="fill:rgb(187,35,40);fill-rule:nonzero;"/>
    </g>
    <g transform="matrix(4.16667,0,0,4.16667,-113.021,-991.975)">
        <path d="M101.531,394.235C111.892,394.383 121.089,392.569 126.873,389.644C126.678,388.34 126.397,387.243 126.01,386.448C123.044,380.36 106.359,380.795 99.5,383.658C92.641,386.52 76.327,380.941 73.917,385.233C73.608,385.784 73.322,386.329 73.054,386.872C74.923,388.393 77.537,389.755 80.707,390.883C85.347,392.535 86.878,386.587 93.306,386.991C94.592,387.071 100.202,394.216 101.531,394.235Z" style="fill:rgb(187,35,40);fill-rule:nonzero;"/>
    </g>
    <g transform="matrix(4.16667,0,0,4.16667,-113.021,-991.975)">
        <path d="M129.082,431.655C126.909,429.685 124.103,431.544 121.391,434.535C118.679,437.525 117.089,440.512 119.261,442.482C121.433,444.452 126.544,444.659 129.256,441.668C131.968,438.678 131.253,433.624 129.082,431.655Z" style="fill:rgb(244,162,104);fill-rule:nonzero;"/>
    </g>
    <g transform="matrix(4.16667,0,0,4.16667,-113.021,-991.975)">
        <path d="M115.75,415.257C107.665,414.5 106.903,412.213 106.903,412.213C106.903,412.213 110.855,395.272 122.173,395.272C133.491,395.272 138.829,406.545 138.829,406.545C138.829,406.545 133.185,416.888 115.75,415.257Z" style="fill:rgb(102,48,58);fill-rule:nonzero;"/>
    </g>
    <g transform="matrix(4.16667,0,0,4.16667,-113.021,-991.975)">
        <path d="M133.762,389.245C130.375,383.161 110.856,388.676 109.485,402.151C109.348,410.753 112.226,430.6 114.58,434.008C117.159,437.742 123.638,442.435 127.19,439.994C130.744,437.552 141.075,402.383 133.762,389.245Z" style="fill:rgb(247,191,135);fill-rule:nonzero;"/>
    </g>
    <g transform="matrix(4.16667,0,0,4.16667,-113.021,-991.975)">
        <path d="M133.762,389.245C130.375,383.161 110.856,388.676 109.485,402.151C109.402,407.384 110.435,416.776 111.786,424.099C111.855,423.525 111.938,422.945 112.041,422.361C113.761,412.538 119.559,405.187 124.991,405.94C130.422,406.694 133.431,415.267 131.71,425.089C130.459,432.237 127.047,438.072 123.189,440.432C124.67,440.822 126.075,440.76 127.19,439.994C130.744,437.552 141.075,402.383 133.762,389.245Z" style="fill:rgb(244,162,104);fill-rule:nonzero;"/>
    </g>
    <g transform="matrix(4.16667,0,0,4.16667,-113.021,-991.975)">
        <path d="M45.305,425.139C40.326,423.015 33.679,397.913 32.435,389.869C32.435,389.869 42.629,381.716 45.903,385.201C49.177,388.686 60.698,409.245 59.992,417.795C59.286,426.345 49.191,426.796 45.305,425.139Z" style="fill:rgb(247,191,135);fill-rule:nonzero;"/>
    </g>
    <g transform="matrix(4.16667,0,0,4.16667,-113.021,-991.975)">
        <path d="M58.976,410.975C58.191,413.508 57.437,415.508 55.535,416.271C49.597,418.652 40.527,409.965 35.277,396.87C34.276,394.372 33.487,391.896 32.906,389.504C32.605,389.732 32.435,389.869 32.435,389.869C33.679,397.913 39.717,424.738 44.696,426.862C48.583,428.519 59.908,426.386 60.614,417.837C60.762,416.052 59.751,413.546 58.976,410.975Z" style="fill:rgb(244,162,104);fill-rule:nonzero;"/>
    </g>
    <g transform="matrix(4.16667,0,0,4.16667,-113.021,-991.975)">
        <path d="M120.152,442.652L93.912,448.292C91.004,448.757 88.514,446.168 89.12,443.286C89.917,439.495 91.457,436.193 93.606,434.676C97.573,431.876 112.876,423.483 121.589,425.337C123.767,425.8 125.498,427.087 126.87,428.757C131.839,434.809 127.623,441.457 120.152,442.652Z" style="fill:rgb(247,191,135);fill-rule:nonzero;"/>
    </g>
    <g transform="matrix(4.16667,0,0,4.16667,-113.021,-991.975)">
        <path d="M105.992,441.091C99.855,441.926 91.004,448.757 93.912,448.292L121.315,443.91C127.335,442.947 131.471,436.757 129.867,431.561C126.611,435.25 116.747,439.627 105.992,441.091Z" style="fill:rgb(244,162,104);fill-rule:nonzero;"/>
    </g>
    <g transform="matrix(4.16667,0,0,4.16667,-113.021,-991.975)">
        <path d="M96.891,393.745C96.635,388.872 93.531,385.694 89.957,386.646C86.383,387.597 83.693,392.319 83.949,397.191C84.205,402.063 87.309,405.242 90.883,404.289C94.457,403.338 97.147,398.617 96.891,393.745Z" style="fill:rgb(227,117,78);fill-rule:nonzero;"/>
    </g>
    <g transform="matrix(4.16667,0,0,4.16667,-113.021,-991.975)">
        <path d="M92.227,395.213C93.976,395.213 95.587,394.837 96.898,394.207C96.896,394.053 96.899,393.9 96.891,393.745C96.635,388.872 93.531,385.694 89.957,386.646C87.748,387.234 85.879,389.264 84.833,391.877C85.978,393.828 88.852,395.213 92.227,395.213Z" style="fill:rgb(244,162,104);fill-rule:nonzero;"/>
    </g>
    <g transform="matrix(4.16667,0,0,4.16667,-113.021,-991.975)">
        <path d="M78.314,416.745C83.246,418.834 89.261,417.692 89.261,417.692L88.886,412.456L78.314,416.745Z" style="fill:rgb(159,139,123);fill-rule:nonzero;"/>
    </g>
    <g transform="matrix(4.16667,0,0,4.16667,-113.021,-991.975)">
        <path d="M77.542,418.401C65.136,414.926 70.45,400.435 75.632,394.059C75.632,394.059 72.597,380.18 83.14,383.037C93.682,385.895 95.675,394.481 94.222,403.624C94.222,403.624 90.252,421.96 77.542,418.401Z" style="fill:rgb(182,165,153);fill-rule:nonzero;"/>
    </g>
    <g transform="matrix(4.16667,0,0,4.16667,-113.021,-991.975)">
        <path d="M201.725,449.21L183.723,449.21C183.723,449.21 184.979,442.954 187.491,441.934C190.002,440.912 194.962,446.492 196.916,446.62C198.87,446.747 201.306,447.933 201.725,449.21Z" style="fill:rgb(247,191,135);fill-rule:nonzero;"/>
    </g>
    <g transform="matrix(4.16667,0,0,4.16667,-113.021,-991.975)">
        <path d="M82.561,383.648C73.503,381.095 75.509,392.039 75.878,393.737C77.779,392.786 79.844,392.437 81.917,392.845C87.951,394.035 91.906,401.214 91.281,409.331C92.846,406.021 93.418,402.918 93.418,402.918C94.498,394.36 90.141,385.785 82.561,383.648Z" style="fill:rgb(159,139,123);fill-rule:nonzero;"/>
    </g>
    <g transform="matrix(4.16667,0,0,4.16667,-113.021,-991.975)">
        <path d="M85.205,405.104C85.584,399.676 82.853,395.064 79.106,394.802C75.359,394.541 72.014,398.729 71.636,404.157C71.257,409.584 73.988,414.197 77.734,414.458C81.481,414.719 84.826,410.532 85.205,405.104Z" style="fill:rgb(194,179,167);fill-rule:nonzero;"/>
    </g>
    <g transform="matrix(4.16667,0,0,4.16667,-113.021,-991.975)">
        <path d="M35.697,397.887C29.17,392.617 30.619,388.789 30.619,386.618C30.619,384.446 34.755,373.172 37.858,373.896C40.961,374.62 45.185,384.6 45.487,384.844C45.79,385.088 35.697,397.887 35.697,397.887Z" style="fill:rgb(244,162,104);fill-rule:nonzero;"/>
    </g>
    <g transform="matrix(4.16667,0,0,4.16667,-113.021,-991.975)">
        <path d="M56.698,265.233L53.157,264.275L27.125,448.794L29.447,449.21L56.698,265.233Z" style="fill:rgb(142,62,74);fill-rule:nonzero;"/>
    </g>
    <g transform="matrix(4.16667,0,0,4.16667,-113.021,-991.975)">
        <path d="M98.709,403.201C97.097,403.546 98.856,401.293 101.569,400.327C104.819,399.168 105.345,399.503 104.354,400.447C103.417,401.337 99.734,402.98 98.709,403.201Z" style="fill:rgb(187,35,40);fill-rule:nonzero;"/>
    </g>
    <g transform="matrix(4.16667,0,0,4.16667,-113.021,-991.975)">
        <path d="M89.33,406.384C89.33,404.328 88.589,402.661 87.675,402.661C86.762,402.661 86.021,404.328 86.021,406.384C86.021,408.44 86.762,410.107 87.675,410.107C88.589,410.107 89.33,408.44 89.33,406.384Z" style="fill:rgb(194,179,167);fill-rule:nonzero;"/>
    </g>
    <g transform="matrix(4.16667,0,0,4.16667,-113.021,-991.975)">
        <path d="M136.359,404.054C136.671,403.587 136.98,402.455 137.2,401.661C136.27,397.627 133.86,394.312 131.615,392.507C127.788,389.431 124.476,388.578 120.144,389.109C119.589,389.176 118.896,389.438 118.799,390.08C118.713,390.644 119.273,391.063 119.781,391C123.619,390.531 127.814,391.77 131.216,394.504C134.096,396.82 136.516,400.496 136.359,404.054Z" style="fill:rgb(102,48,58);fill-rule:nonzero;"/>
    </g>
    <g transform="matrix(4.16667,0,0,4.16667,-113.021,-991.975)">
        <path d="M122.413,405.118C129.177,403.82 136.139,404.483 138.829,406.545C138.694,402.714 138.634,399.515 137.658,395.392C135.584,386.632 126.745,381.157 117.914,383.161C109.084,385.167 102.325,394.881 106.903,412.213C109.708,409.763 116.771,406.199 122.413,405.118Z" style="fill:rgb(182,165,153);fill-rule:nonzero;"/>
    </g>
    <g transform="matrix(4.16667,0,0,4.16667,-113.021,-991.975)">
        <path d="M136.215,396.92C136.101,396.238 135.967,395.537 135.792,394.797C134.019,387.309 126.463,382.628 118.916,384.343C116.897,384.801 115.015,385.745 113.401,387.145C114.663,389.88 116.962,392.637 120.086,394.837C125.97,398.98 132.736,399.741 136.215,396.92Z" style="fill:rgb(194,179,167);fill-rule:nonzero;"/>
    </g>
    <g transform="matrix(4.16667,0,0,4.16667,-113.021,-991.975)">
        <path d="M75.211,400.931C75.671,399.34 75.482,398.115 74.788,398.194C74.094,398.273 73.157,399.627 72.697,401.218C72.236,402.809 72.426,404.036 73.12,403.956C73.814,403.876 74.751,402.523 75.211,400.931Z" style="fill:rgb(220,207,199);fill-rule:nonzero;"/>
    </g>
    <g transform="matrix(4.16667,0,0,4.16667,-113.021,-991.975)">
        <path d="M89.478,412.629C89.795,411.916 89.772,411.212 89.424,411.057C89.076,410.902 88.536,411.354 88.218,412.067C87.9,412.78 87.924,413.484 88.272,413.639C88.62,413.794 89.159,413.342 89.478,412.629Z" style="fill:rgb(159,139,123);fill-rule:nonzero;"/>
    </g>
    <g transform="matrix(4.16667,0,0,4.16667,-113.021,-991.975)">
        <path d="M54.991,274.704L60.039,265.313L57.916,245.271L50.482,264.145L52.2,275.479L54.991,274.704Z" style="fill:rgb(209,233,229);fill-rule:nonzero;"/>
    </g>
    <g transform="matrix(4.16667,0,0,4.16667,-113.021,-991.975)">
        <path d="M54.132,274.69L56.028,271.162L55.231,263.636L52.439,270.724L53.085,274.981L54.132,274.69Z" style="fill:rgb(185,211,207);fill-rule:nonzero;"/>
    </g>
    <g transform="matrix(4.16667,0,0,4.16667,-113.021,-991.975)">
        <path d="M52.701,280.794L53.207,280.832C54.874,280.956 56.401,279.822 56.9,278.088L56.908,278.063C57.627,275.567 55.943,273.019 53.539,272.963L53.025,272.952C50.784,272.9 49.041,275.059 49.379,277.469C49.634,279.286 51.015,280.668 52.701,280.794Z" style="fill:rgb(185,211,207);fill-rule:nonzero;"/>
    </g>
    <g transform="matrix(4.16667,0,0,4.16667,-113.021,-991.975)">
        <path d="M47.973,387.989C46.663,384.472 45.271,376.482 43.547,375.861C41.823,375.241 40.927,376.206 40.582,376.689C40.237,377.171 37.944,384.076 39.065,385.101C40.186,386.126 41.203,386.48 41.409,385.859C41.616,385.239 42.65,381.86 42.65,381.86C42.65,381.86 40.651,388.479 42.719,390.341C44.788,392.203 47.973,387.989 47.973,387.989Z" style="fill:rgb(247,191,135);fill-rule:nonzero;"/>
    </g>
    <g transform="matrix(4.16667,0,0,4.16667,-113.021,-991.975)">
        <path d="M41.413,379.174C42.283,378.041 43.097,376.822 41.086,375.276C39.076,373.729 36.74,373.393 35.869,374.525C34.999,375.657 35.923,377.828 37.934,379.374C39.944,380.921 40.542,380.306 41.413,379.174Z" style="fill:rgb(247,191,135);fill-rule:nonzero;"/>
    </g>
    <g transform="matrix(4.16667,0,0,4.16667,-113.021,-991.975)">
        <path d="M39.284,384.279C39.976,383.158 40.6,381.957 38.442,380.626C36.284,379.294 33.975,379.123 33.283,380.245C32.592,381.366 33.781,383.353 35.94,384.685C38.097,386.017 38.593,385.4 39.284,384.279Z" style="fill:rgb(247,191,135);fill-rule:nonzero;"/>
    </g>
    <g transform="matrix(4.16667,0,0,4.16667,-113.021,-991.975)">
        <path d="M38.181,390.001C38.872,388.881 39.497,387.681 37.339,386.349C35.181,385.017 32.871,384.846 32.18,385.967C31.489,387.088 32.678,389.077 34.836,390.408C36.994,391.74 37.49,391.122 38.181,390.001Z" style="fill:rgb(247,191,135);fill-rule:nonzero;"/>
    </g>
    <g transform="matrix(4.16667,0,0,4.16667,-113.021,-991.975)">
        <path d="M95.191,433.918C90.02,432.815 82.987,432.815 82.022,435.16C81.056,437.503 81.539,447.294 82.849,448.122C84.159,448.95 92.64,448.536 93.261,448.26C93.881,447.984 95.191,433.918 95.191,433.918Z" style="fill:rgb(247,191,135);fill-rule:nonzero;"/>
    </g>
    <g transform="matrix(4.16667,0,0,4.16667,-113.021,-991.975)">
        <path d="M82.95,438.691C81.269,438.806 80.008,438.669 79.588,438.163C79.168,437.658 79.084,434.565 80.512,434.132C81.941,433.7 86.228,433.642 86.228,433.642L82.95,438.691Z" style="fill:rgb(247,191,135);fill-rule:nonzero;"/>
    </g>
    <g transform="matrix(4.16667,0,0,4.16667,-113.021,-991.975)">
        <path d="M83.218,443.807C81.602,443.788 80.358,443.552 79.878,443.017C79.399,442.481 78.88,439.4 80.207,439.083C81.534,438.766 85.69,439.05 85.69,439.05L83.218,443.807Z" style="fill:rgb(247,191,135);fill-rule:nonzero;"/>
    </g>
    <g transform="matrix(4.16667,0,0,4.16667,-113.021,-991.975)">
        <path d="M84.322,448.427C82.703,448.411 81.425,448.194 80.87,447.703C80.314,447.213 79.36,444.393 80.642,444.104C81.924,443.814 86.12,444.074 86.12,444.074L84.322,448.427Z" style="fill:rgb(247,191,135);fill-rule:nonzero;"/>
    </g>
    <g transform="matrix(4.16667,0,0,4.16667,-113.021,-991.975)">
        <path d="M122.23,403.54C116.71,404.598 109.934,407.868 106.493,410.431C106.626,411.023 106.742,411.603 106.903,412.213C109.708,409.763 116.771,406.199 122.413,405.118C129.177,403.82 136.139,404.483 138.829,406.545C138.803,405.813 138.778,405.107 138.751,404.41C135.339,402.733 128.705,402.298 122.23,403.54Z" style="fill:rgb(220,207,199);fill-rule:nonzero;"/>
    </g>
    <g transform="matrix(4.16667,0,0,4.16667,-113.021,-991.975)">
        <path d="M114.235,394.106C114.143,391.687 113.057,389.906 111.81,390.127C110.563,390.349 109.625,392.491 109.717,394.91C109.809,397.328 110.895,399.11 112.143,398.888C113.39,398.665 114.327,396.525 114.235,394.106Z" style="fill:rgb(194,179,167);fill-rule:nonzero;"/>
    </g>
    <g transform="matrix(4.16667,0,0,4.16667,-113.021,-991.975)">
        <path d="M125.192,384.813C123.417,384.278 121.857,384.621 121.708,385.581C121.559,386.541 122.876,387.753 124.65,388.288C126.425,388.825 127.985,388.481 128.134,387.521C128.284,386.561 126.966,385.348 125.192,384.813Z" style="fill:rgb(220,207,199);fill-rule:nonzero;"/>
    </g>
    <g transform="matrix(4.16667,0,0,4.16667,-113.021,-991.975)">
        <path d="M131.214,389.199C130.235,388.566 129.266,388.709 129.047,389.519C128.828,390.328 129.445,391.497 130.423,392.13C131.403,392.763 132.373,392.62 132.591,391.811C132.81,391.001 132.193,389.831 131.214,389.199Z" style="fill:rgb(220,207,199);fill-rule:nonzero;"/>
    </g>
    <g transform="matrix(4.16667,0,0,4.16667,-113.021,-991.975)">
        <path d="M188.798,424.859C184.187,424.064 183.014,421.45 183.014,421.45L184.547,420.2C184.547,420.2 180.568,417.7 180.009,415.314C180.009,415.314 182.424,414.177 184.146,414.632L185.69,409.178C185.69,409.178 187.987,410.541 187.689,414.518L189.485,411.791C189.485,411.791 190.333,415.314 189.378,418.836L191.298,416.336C191.656,419.551 191.017,422.453 188.798,424.859Z" style="fill:rgb(209,191,169);fill-rule:nonzero;"/>
    </g>
    <g transform="matrix(4.16667,0,0,4.16667,-113.021,-991.975)">
        <path d="M198.178,448.255L186.528,414.443L185.139,416.11C185.139,416.11 193.855,439.262 197.141,448.255L198.178,448.255Z" style="fill:rgb(112,54,57);fill-rule:nonzero;"/>
    </g>
</svg>
