<svg viewBox="0 0 412 351" xmlns="http://www.w3.org/2000/svg" xml:space="preserve" style="fill-rule:evenodd;clip-rule:evenodd;stroke-linejoin:round;stroke-miterlimit:2"><path d="M544.417 705.361c-27.242 8.851-22.063-4.46-29.774-.661v8.264c3.683-6.917 4.769 7.834 28.72-3.695 3.506-1.686 7.679 4.747 17.556.717-8.484 1.91-12.138-6.042-16.502-4.625Zm-193.744-56.718c-10.329 4.526-8.186-1.579-11.13.285l-.126 3.727c1.483-3.192 1.663 3.439 10.801-2.23 1.337-.83 2.8 1.99 6.558-.022-3.204 1.028-4.45-2.486-6.103-1.76Z" style="fill:#ff8da0;fill-rule:nonzero" transform="matrix(-1 0 0 1 710.353 -648.543)"/><path d="M698.843 761.282c1.672 3.692-16.695 2.623-16.006 0 .688-2.626-6.33-5.865-11.007-4.273l.55 7.051c2.889-3.087 8.928-2.593 7.567.463-1.145 2.572 22.787 2.01 21.144-1.233-2.293-4.528 8.897 0 8.897 0-.826-.927-12.567-5.146-11.145-2.008Z" style="fill:#ffd79c;fill-rule:nonzero" transform="matrix(-1 0 0 1 710.353 -648.543)"/><path d="m352.677 715.883-26.562 1.098-3.002 110.465h37.867l-8.303-111.563Z" style="fill:#f9ddd2;fill-rule:nonzero" transform="matrix(-1 0 0 1 710.353 -648.543)"/><path d="m352.677 715.883-8.049 1.098-9.958 110.465h26.31l-8.303-111.563Z" style="fill:#edc7b2;fill-rule:nonzero" transform="matrix(-1 0 0 1 710.353 -648.543)"/><path d="M346.583 712.812h-20.637v10.342l21.325 6.175-.688-16.517Z" style="fill:#edc7b2;fill-rule:nonzero" transform="matrix(-1 0 0 1 710.353 -648.543)"/><path d="M355.113 714.048h-32.057l2.614 6.637h27.655l1.788-6.637Z" style="fill:#724139;fill-rule:nonzero" transform="matrix(-1 0 0 1 710.353 -648.543)"/><path style="fill:#edc7b2" d="M327.046 718.678h1.338v3.705h-1.338zm3.347 0h1.338v3.705h-1.338zm3.347 0h1.338v3.705h-1.338zm3.346 0h1.338v3.705h-1.338zm3.346 0h1.34v3.705h-1.34zm3.348 0h1.338v3.705h-1.338zm3.345 0h1.338v3.705h-1.338zm3.348 0h1.338v3.705h-1.338z" transform="matrix(-1 0 0 1 710.353 -648.543)"/><path d="M316.866 872.881h-9.906l-.001 22.38 9.907 6.125v-28.505Z" style="fill:#edc7b2;fill-rule:nonzero" transform="matrix(-1 0 0 1 710.353 -648.543)"/><path d="m316.409 878.747-12.751-.41 13.574-46.102-.823 46.512Z" style="fill:#ef5252;fill-rule:nonzero" transform="matrix(-1 0 0 1 710.353 -648.543)"/><path d="M317.599 879.775h-15.776l-2.751-3.908 19.077 1.851-.55 2.057Z" style="fill:#d3404e;fill-rule:nonzero" transform="matrix(-1 0 0 1 710.353 -648.543)"/><path d="m362.773 765.891-44.624 2.294-8.526 230.463h54.957l-1.807-232.757Z" style="fill:#f9ddd2;fill-rule:nonzero" transform="matrix(-1 0 0 1 710.353 -648.543)"/><path d="M313.15 987.105h-4.54l-.825 11.423h4.54l.825-11.423Zm.688-12.503h-4.54l-.413 11.423h4.54l.413-11.423Zm.628-12.495h-4.54l-.628 11.57h4.54l.628-11.57Zm.473-12.665h-4.54l-.217 11.571h4.541l.216-11.571Zm.491-12.65h-4.541l-.628 11.57h4.54l.629-11.57Zm.472-12.664h-4.54l-.216 11.569h4.54l.216-11.569Zm.353-11.678h-4.54l-.629 10.907h4.54l.629-10.907Zm.472-11.938h-4.54l-.216 10.905h4.54l.216-10.905Zm2.818-63.303-4.532.281-.386 8.904 4.534-.281.384-8.904Zm-1.1 11.112-4.533.283-.385 8.907 4.533-.284.385-8.906Zm-1.791 38.275-4.533.281-.181 12.84 4.534-.284.18-12.837Zm.917-27.684-4.534.283-.18 12.837 4.533-.281.181-12.839Zm.134 15.032-4.535.282-.313 10.156 4.533-.284.315-10.154Zm2.047-46.472-4.533.285.027 8.879 4.533-.284-.027-8.88Zm.148-9.723-4.533.283-.183 9.006 4.532-.283.184-9.006Zm-.016-9.848-4.533.283.23 8.982 4.532-.282-.229-8.983Zm.006-9.836-4.534.282-.183 9.008 4.533-.282.184-9.008Zm-.016-9.845-4.533.28.228 8.982 4.533-.281-.228-8.981Zm-.096-9.076-4.532.284-.21 8.492 4.534-.282.208-8.494Z" style="fill:#f9ddd2;fill-rule:nonzero" transform="matrix(-1 0 0 1 710.353 -648.543)"/><path d="m319.791 769.861-4.535.282.205 8.469 4.533-.285-.203-8.466Z" style="fill:#edc7b2;fill-rule:nonzero" transform="matrix(-1 0 0 1 710.353 -648.543)"/><path d="M322.735 773.579h-5.871l-.184 9.262h5.871l.184-9.262Z" style="fill:#f9ddd2;fill-rule:nonzero" transform="matrix(-1 0 0 1 710.353 -648.543)"/><path d="M320.099 998.648h44.663l-1.806-232.757-25.117 1.29-17.74 231.467Z" style="fill:#edc7b2;fill-rule:nonzero" transform="matrix(-1 0 0 1 710.353 -648.543)"/><path style="fill:#edc7b2" d="M334.337 784.743h4.817v13.429h-4.817zm-1.788 14.511h4.816v13.428h-4.816zm.276 14.046h4.815v13.429h-4.815z" transform="matrix(-1 0 0 1 710.353 -648.543)"/><path style="fill:#edc7b2" d="M331.586 826.421h4.816v13.428h-4.816z" transform="matrix(-1 0 0 1 710.353 -648.543)"/><path style="fill:#edc7b2" d="M327.596 825.956h10.869v.773h-10.869zm-1.514-41.476h10.869v.602h-10.869z" transform="matrix(-1 0 0 1 710.353 -648.543)"/><path style="fill:#edc7b2" d="M328.573 781.812h.537v10.874h-.537z" transform="matrix(-1 0 0 1 710.353 -648.543)"/><path d="m316.865 771.724-.366 7.617s26.047 7.821 26.416 8.438l.366-15.642-26.416-.413Z" style="fill:#edc7b2;fill-rule:nonzero" transform="matrix(-1 0 0 1 710.353 -648.543)"/><path style="fill:#dbaa91" d="M338.878 649.062h.826v33.547h-.826z" transform="matrix(-1 0 0 1 710.353 -648.543)"/><path d="M319.813 717.991h40.541l-5.902-10.593-15.393-34.462-14.437 36.819-4.809 8.236Z" style="fill:#ef5252;fill-rule:nonzero" transform="matrix(-1 0 0 1 710.353 -648.543)"/><path d="M331.133 717.991h29.221l-5.902-10.593-15.212-34.057c1.599 14.637-1.869 33.638-8.107 44.65Z" style="fill:#d3404e;fill-rule:nonzero" transform="matrix(-1 0 0 1 710.353 -648.543)"/><path d="M366.533 772.24h-53.795l2.339 4.168h48.016l3.44-4.168Z" style="fill:#683226;fill-rule:nonzero" transform="matrix(-1 0 0 1 710.353 -648.543)"/><path style="fill:#edc7b2" d="M318.654 775.301h2.255v2.177h-2.255zm4.8 0h2.254v2.177h-2.254zm4.8 0h2.254v2.177h-2.254zm4.799 0h2.255v2.177h-2.255zm4.801 0h2.255v2.177h-2.255zm4.801 0h2.255v2.177h-2.255zm4.8 0h2.253v2.177h-2.253zm4.8 0h2.254v2.177h-2.254zm4.799 0h2.255v2.177h-2.255z" transform="matrix(-1 0 0 1 710.353 -648.543)"/><path d="M310.217 774.533h59.48l-14.128-22.575-31.863.644-13.489 21.931Z" style="fill:#ef5252;fill-rule:nonzero" transform="matrix(-1 0 0 1 710.353 -648.543)"/><path d="M336.237 770.9a31.48 31.48 0 0 1-2.386 3.633h35.846l-14.128-22.575-15.443.31c.74 5.848-.496 12.57-3.889 18.632Z" style="fill:#d3404e;fill-rule:nonzero" transform="matrix(-1 0 0 1 710.353 -648.543)"/><path d="M693.14 891.938h7.82l.653 14.346-8.473 3.241v-17.587Z" style="fill:#dbaa91;fill-rule:nonzero" transform="matrix(-1 0 0 1 710.353 -648.543)"/><path d="m693.5 896.335 10.068-.307-10.717-34.56.649 34.867Z" style="fill:#b22b3b;fill-rule:nonzero" transform="matrix(-1 0 0 1 710.353 -648.543)"/><path d="M617.914 817.135h4.033l-3.164-5.568-8.16-17.912v.002l-.098-.213-7.744 19.362-2.578 4.329h3.365l-1.596 80.487h20.309l-4.367-80.487Z" style="fill:#ead3d7;fill-rule:nonzero" transform="matrix(-1 0 0 1 710.353 -648.543)"/><path d="m659.289 845.769-14.016-17.215-54.061-3.544-17.521 15.695 7.008 1.518-30.033 5.569 2.001 72.398 118.135-20.25-11.513-54.171Z" style="fill:#c9a9af;fill-rule:nonzero" transform="matrix(-1 0 0 1 710.353 -648.543)"/><path d="M643.277 795.574h2.627l-2.063-3.376-5.31-10.87v.002l-.063-.13-5.043 11.749-1.677 2.625h2.189l-1.037 48.837h13.223l-2.846-48.837Z" style="fill:#c9a9af;fill-rule:nonzero" transform="matrix(-1 0 0 1 710.353 -648.543)"/><path d="M435.815 759.505h6.627l-5.2-2.946-13.408-9.481v.002l-.159-.113-12.721 10.247-4.237 2.291h5.528l-2.62 42.594h33.368l-7.178-42.594Z" style="fill:#ddbfc3;fill-rule:nonzero" transform="matrix(-1 0 0 1 710.353 -648.543)"/><path d="m440.549 814.905 23.45-8.185-.509-32.421-8.156-2.349 27.018-46.016 23.96 46.007-5.098 1.823.509 24.828 64.743-4.529 27.037 22.963-9.175 3.18V932.6l-144.287-42.787.508-74.908Z" style="fill:#b78a92;fill-rule:nonzero" transform="matrix(-1 0 0 1 710.353 -648.543)"/><path d="m690.63 803.961-35.879 1.918-4.054 192.769h51.144L690.63 803.961Z" style="fill:#edc7b2;fill-rule:nonzero" transform="matrix(-1 0 0 1 710.353 -648.543)"/><path style="fill:#edc7b2" d="M652.156 856.519h3.715v8.337h-3.715zm.687-9.261h3.715v8.335h-3.715zm.139-9.571h3.715v8.336h-3.715zm.412-9.416h3.715v8.337h-3.715zm.137-13.273h3.717v8.335h-3.717z" transform="matrix(-1 0 0 1 710.353 -648.543)"/><path d="m690.63 803.961-10.873 1.918 7.666 101.889-11.531-11.502-9.584 102.382h35.533L690.63 803.961Z" style="fill:#dbaa91;fill-rule:nonzero" transform="matrix(-1 0 0 1 710.353 -648.543)"/><path style="fill:#edc7b2" d="M679.398 826.111h3.439v6.947h-3.439zm.412 7.873h3.44v6.945h-3.44zm2.477 32.57h3.439v6.946h-3.439zm-.688-7.72h3.44v6.947h-3.44zm-.139-8.18h3.442v6.947h-3.442zm-.619-8.412h3.44v6.946h-3.44zm1.653 31.951h3.439v6.946h-3.439zm1.238 9.109h3.439v6.944h-3.439zm.549 8.643h3.441v6.944h-3.441z" transform="matrix(-1 0 0 1 710.353 -648.543)"/><path d="M691.781 809.75h-4.127l.549 8.335h4.129l-.551-8.335Zm.687 9.262h-4.127l.549 8.333h4.129l-.551-8.333Zm.551 9.259h-4.129l.551 8.337h4.127l-.549-8.337Zm.549 9.108h-4.127l.551 8.335h4.127l-.551-8.335Zm.551 9.108h-4.127l.549 8.335h4.128l-.55-8.335Zm.55 9.106h-4.128l.55 8.336h4.127l-.549-8.336Zm.549 9.108h-4.127l.551 8.335h4.127l-.551-8.335Zm.551 9.106h-4.127l.551 8.337h4.127l-.551-8.337Zm.551 9.108h-4.127l.551 8.335h4.127l-.551-8.335Zm.551 9.108h-4.127l.548 8.335h4.129l-.55-8.335Zm.55 9.106h-4.129l.551 8.335h4.127l-.549-8.335Zm.549 9.108h-4.127l.551 8.335h4.127l-.551-8.335Zm.965 9.26h-4.129l1.233 8.318h4.127l-1.231-8.318Zm1.293 9.089h-4.129l1.231 8.32h4.128l-1.23-8.32Zm1.293 9.092h-4.127l1.227 8.318h4.129l-1.229-8.318Zm1.293 9.088h-4.129l1.231 8.317h4.126l-1.228-8.317Zm1.293 9.088h-4.127l1.228 8.321h4.127l-1.228-8.321Zm1.291 9.089h-4.127l1.229 8.32h4.128l-1.23-8.32Zm1.293 9.09h-4.127l1.23 8.32h4.127l-1.23-8.32Zm1.293 9.09h-4.127l1.23 8.32h4.127l-1.23-8.32Zm1.295 9.089h-4.129l1.076 6.436h4.127l-1.074-6.436Z" style="fill:#dbaa91;fill-rule:nonzero" transform="matrix(-1 0 0 1 710.353 -648.543)"/><path d="m319.455 901.06 3.928 97.588 17.949-25.314-6.145-72.438-15.732.164Z" style="fill:#edc7b2;fill-rule:nonzero" transform="matrix(-1 0 0 1 710.353 -648.543)"/><path d="M324.57 959.168h-3.853l.413 10.187h3.852l-.412-10.187Zm-.276-11.268h-3.852l.413 10.186h3.853l-.414-10.186Zm-.825-11.116h-3.852l.413 10.189h3.851l-.412-10.189Zm-.551-11.268h-3.852l.413 10.188h3.853l-.414-10.188Zm-.137-11.114h-3.852l.412 10.189h3.853l-.413-10.189Zm-.688-5.864h-3.852l.413 4.476h3.852l-.413-4.476Z" style="fill:#edc7b2;fill-rule:nonzero" transform="matrix(-1 0 0 1 710.353 -648.543)"/><path d="M322.369 900.82h-3.853l.413 7.255h3.852l-.412-7.255Zm27.971 3.918-21.828-.294 8.432 87.413 21.828.294-8.432-87.413Z" style="fill:#dbaa91;fill-rule:nonzero" transform="matrix(-1 0 0 1 710.353 -648.543)"/><path d="M341.252 900.741h-21.83l.744 8.054h21.831l-.745-8.054Z" style="fill:#dbaa91;fill-rule:nonzero" transform="matrix(-1 0 0 1 710.353 -648.543)"/><path style="fill:#b27f6b" d="M325.12 899.33h2.344v7.819h-2.344zm6.093 0h2.345v7.819h-2.345z" transform="matrix(-1 0 0 1 710.353 -648.543)"/><path d="M480.177 738.643c1.671 3.693-16.694 2.623-16.007-.001.689-2.624-6.329-5.865-11.006-4.272l.551 7.051c2.888-3.088 8.927-2.595 7.566.463-1.145 2.573 22.786 2.009 21.142-1.234-2.293-4.528 8.898 0 8.898 0-.825-.926-12.566-5.145-11.144-2.007Z" style="fill:#92dbf4;fill-rule:nonzero" transform="matrix(-1 0 0 1 710.353 -648.543)"/><path style="fill:#dbaa91" d="M453.348 733.651h.825v52.07h-.825z" transform="matrix(-1 0 0 1 710.353 -648.543)"/><path d="m469.858 843.863 9.906-1.546-24.581-59.476-8.256.41-9.814 12.76 32.745 47.852Z" style="fill:#b22b3b;fill-rule:nonzero" transform="matrix(-1 0 0 1 710.353 -648.543)"/><path d="m475.986 842.384-3.465 5.641-.462-3.235 2.601-4.564 1.326 2.158Z" style="fill:#56251d;fill-rule:nonzero" transform="matrix(-1 0 0 1 710.353 -648.543)"/><path d="m318.645 893.535 19.133-14.788 3.259 23.567-26.432-.426 4.04-8.353Z" style="fill:#ef5252;fill-rule:nonzero" transform="matrix(-1 0 0 1 710.353 -648.543)"/><path d="M323.825 998.648h148.668l1.002-158.932-21.023-46.05-96.609 16.847-20.526 40.435-1.001 83.677-6.506 6.18-4.005 57.843Z" style="fill:#f9ddd2;fill-rule:nonzero" transform="matrix(-1 0 0 1 710.353 -648.543)"/><path d="m333.375 940.075-6.792.002-1.375 14.152 6.792-.002 1.375-14.152Z" style="fill:#f9ddd2;fill-rule:nonzero" transform="matrix(-1 0 0 1 710.353 -648.543)"/><path d="m339.676 954.174-12.933.619-.247.207 13.621.462-.441-1.288Zm19.424-1.79-12.933.616-.248.208 13.622.463-.441-1.287Zm14.302 9.35-12.933.615-.247.209 13.62.462-.44-1.286Zm15.401-4.312-12.933.618-.247.207 13.621.462-.441-1.287Zm15.234-3.753-12.933.615-.247.209 13.621.463-.441-1.287Z" style="fill:#eabda9;fill-rule:nonzero" transform="matrix(-1 0 0 1 710.353 -648.543)"/><path d="m396.032 959.404.169-10.611-.185-.197-.412 10.938.428-.13Zm-15.335-1.08.17-10.61-.185-.199-.413 10.941.428-.132Zm-15.711 11.12.17-10.611-.185-.198-.413 10.94.428-.131Zm-15.506-11.646.17-10.61-.186-.198-.412 10.94.428-.132Z" style="fill:#eabda9;fill-rule:nonzero" transform="matrix(-1 0 0 1 710.353 -648.543)"/><path d="M332.137 955.203h-6.792l-1.375 14.152h6.792l1.375-14.152Zm-.963 14.974h-6.792l-1.376 14.151h6.792l1.376-14.151Zm-1.512 15.693h-6.792l-1.376 12.66 6.792-.002 1.376-12.658Z" style="fill:#f9ddd2;fill-rule:nonzero" transform="matrix(-1 0 0 1 710.353 -648.543)"/><path d="m360.021 943.852-3.67 54.796h8.668l1.514-21.146-6.512-33.65Zm-15.96 0-3.669 54.796h8.668l1.513-21.146-6.512-33.65Zm31.369 0-3.67 54.796h8.668l1.514-21.146-6.512-33.65Zm15.96 0-3.67 54.796h8.668l1.514-21.146-6.512-33.65Zm15.593 0-3.67 54.796h13.163l.23-6.503-9.723-48.293Zm11.787-2.128-90.94-1.743 6.631-6.179 90.454-5.969-6.145 13.891Z" style="fill:#eabda9;fill-rule:nonzero" transform="matrix(-1 0 0 1 710.353 -648.543)"/><path d="m420.298 859.419-85.285 2.666.288-7.725 86.095-12.784-1.098 17.843Z" style="fill:#ce9b84;fill-rule:nonzero" transform="matrix(-1 0 0 1 710.353 -648.543)"/><path d="m333.558 855.658 2.953 4.402 3.141-.324-3.364-4.2-2.73.122Zm7.386-.62 2.955 4.404 3.14-.323-3.365-4.203-2.73.122Zm7.757-.608 2.953 4.404 3.141-.323-3.365-4.202-2.729.121Zm7.756-.608 2.954 4.403 3.14-.323-3.364-4.2-2.73.12Zm7.756-.606 2.954 4.404 3.139-.326-3.363-4.2-2.73.122Zm7.756-.609 2.953 4.405 3.141-.327-3.366-4.2-2.728.122Zm7.755-.608 2.955 4.404 3.14-.324-3.364-4.202-2.731.122Zm7.757-.607 2.953 4.403 3.142-.324-3.366-4.203-2.729.124Zm7.756-.608 2.954 4.402 3.14-.323-3.364-4.201-2.73.122Zm7.756-.608 2.954 4.402 3.139-.323-3.364-4.201-2.729.122Zm7.756-.609 2.955 4.404 3.139-.323-3.365-4.203-2.729.122Z" style="fill:#683226;fill-rule:nonzero" transform="matrix(-1 0 0 1 710.353 -648.543)"/><path d="m451.877 790.942-33.017 27.707 3.841 111.166-5.65 12.735-.392 56.098h74.112l-17.276-158.932-21.618-48.774Z" style="fill:#dbaa91;fill-rule:nonzero" transform="matrix(-1 0 0 1 710.353 -648.543)"/><path d="M450.241 884.198h8.242c0-32.652-8.242-32.921-8.242 0Z" style="fill:#b5745d;fill-rule:nonzero" transform="matrix(-1 0 0 1 710.353 -648.543)"/><path d="M450.241 884.198h6.213c0-28.542-6.213-28.777-6.213 0Z" style="fill:#6b3b2c;fill-rule:nonzero" transform="matrix(-1 0 0 1 710.353 -648.543)"/><path d="M474.628 840.879h-6.787l1.284 13.378h6.787l-1.284-13.378Zm2.202 14.614h-6.788l1.284 13.375h6.787l-1.283-13.375Zm1.651 14.61h-6.789l1.283 13.377h6.789l-1.283-13.377Z" style="fill:#dbaa91;fill-rule:nonzero" transform="matrix(-1 0 0 1 710.353 -648.543)"/><path d="m420.298 859.419 31.399-59.908 21.97 40.963-.162-2.133-21.992-50.56-32.469 54.949 1.254 16.689Z" style="fill:#c18a74;fill-rule:nonzero" transform="matrix(-1 0 0 1 710.353 -648.543)"/><path d="M322.542 799.96h-2.163c0-15.714 2.163-15.844 2.163 0Z" style="fill:#cc9881;fill-rule:nonzero" transform="matrix(-1 0 0 1 710.353 -648.543)"/><path d="M322.542 799.96h-1.082c0-11.58 1.082-11.674 1.082 0Z" style="fill:#b5745d;fill-rule:nonzero" transform="matrix(-1 0 0 1 710.353 -648.543)"/><path d="M331.348 742.694h-2.163c0-15.715 2.163-15.845 2.163 0Z" style="fill:#cc9881;fill-rule:nonzero" transform="matrix(-1 0 0 1 710.353 -648.543)"/><path d="M331.348 742.694h-1.082c0-11.581 1.082-11.677 1.082 0Z" style="fill:#b5745d;fill-rule:nonzero" transform="matrix(-1 0 0 1 710.353 -648.543)"/><path d="M322.542 830.838h-2.163c0-15.717 2.163-15.846 2.163 0Z" style="fill:#cc9881;fill-rule:nonzero" transform="matrix(-1 0 0 1 710.353 -648.543)"/><path d="M322.542 830.838h-1.082c0-11.582 1.082-11.677 1.082 0Z" style="fill:#b5745d;fill-rule:nonzero" transform="matrix(-1 0 0 1 710.353 -648.543)"/><path d="m322.824 859.11 96.403-9.69 34.246-62.756-132.3 68.742 1.651 3.704Z" style="fill:#b22b3b;fill-rule:nonzero" transform="matrix(-1 0 0 1 710.353 -648.543)"/><path style="fill:#f9ddd2" d="M360.341 737.354h.826v46.514h-.826z" transform="matrix(-1 0 0 1 710.353 -648.543)"/><path d="m321.173 855.406 96.954-7.53 33.696-64.915-91.606-2.809-39.044 75.254Z" style="fill:#ef5252;fill-rule:nonzero" transform="matrix(-1 0 0 1 710.353 -648.543)"/><path d="m321.173 855.406 130.65-72.445-91.606-2.809-17.967 34.627-21.077 40.627Z" style="fill:#ff5f5f;fill-rule:nonzero" transform="matrix(-1 0 0 1 710.353 -648.543)"/><path d="m525.24 897.934-31.952-2.671.616-9.943-11.939.733-2.201 5.867-7.155-2.007.623-8.644-3.755-1.157-6.911 7.023-4.815-1.236-.275-8.49-3.884-1.188-3.959 6.282-3.163 116.145h83.613l-4.843-100.714Z" style="fill:#b27f6b;fill-rule:nonzero" transform="matrix(-1 0 0 1 710.353 -648.543)"/><path d="m522.214 897.934-31.953-2.671.615-9.943-13.242-1.17-1.177 6.109-8.051-2.369 1.071-7.778-9.544-1.258-.791 5.731-6.232-.966.682-7.398-8.551-1.169-1.598 123.596h83.613l-4.842-100.714Z" style="fill:#cc9881;fill-rule:nonzero" transform="matrix(-1 0 0 1 710.353 -648.543)"/><path d="M488.026 998.648h39.03l-4.842-100.714-31.628.572-21.461-2.264 18.901 102.406Z" style="fill:#edc7b2;fill-rule:nonzero" transform="matrix(-1 0 0 1 710.353 -648.543)"/><path d="m694.75 897-4.575 16.325-14.675-17.288-23.932-.721-1.871 103.332h59.566L694.75 897Z" style="fill:#dbaa91;fill-rule:nonzero" transform="matrix(-1 0 0 1 710.353 -648.543)"/><path d="M674.248 895.418h-1.67l.367 6.687h1.67l-.367-6.687Z" style="fill:#b5745d;fill-rule:nonzero" transform="matrix(-1 0 0 1 710.353 -648.543)"/><path d="m651.744 891.403 23.537-.547 2.722 6.067-26.168.478-.091-5.998Z" style="fill:#d3404e;fill-rule:nonzero" transform="matrix(-1 0 0 1 710.353 -648.543)"/><path d="m651.744 891.403 18.435-.429 7.824 5.949-26.168.478-.091-5.998Z" style="fill:#b22b3b;fill-rule:nonzero" transform="matrix(-1 0 0 1 710.353 -648.543)"/><path d="m591.431 902.196-43.982 3.535-1.871 92.917h47.414l-1.561-96.452Z" style="fill:#aa725e;fill-rule:nonzero" transform="matrix(-1 0 0 1 710.353 -648.543)"/><path d="m562.105 899.017-9.268-.022 1.055 8.448 9.27.023-1.057-8.449Zm15.594-.552-9.27-.023 1.055 8.446 9.269.023-1.054-8.446Z" style="fill:#aa725e;fill-rule:nonzero" transform="matrix(-1 0 0 1 710.353 -648.543)"/><path d="m549.621 892.396 28.81-1.3 4.461 7.501-38.769 1.598 5.498-7.799Z" style="fill:#b22b3b;fill-rule:nonzero" transform="matrix(-1 0 0 1 710.353 -648.543)"/><path d="m574.605 898.609-16.418.41v.927l16.418-.411v-.926Z" style="fill:#932134;fill-rule:nonzero" transform="matrix(-1 0 0 1 710.353 -648.543)"/><path d="M662.365 865.268h-87.676l-3.637 133.38h110.68l-19.367-133.38Z" style="fill:#f4d5c6;fill-rule:nonzero" transform="matrix(-1 0 0 1 710.353 -648.543)"/><path style="fill:#dbaa91" d="M580.474 881.218h15.274v14.817h-15.274z" transform="matrix(-1 0 0 1 710.353 -648.543)"/><path d="m573.32 881.423-2.268 117.225h6.121l9.08-116.608-12.933-.617Z" style="fill:#dbaa91;fill-rule:nonzero" transform="matrix(-1 0 0 1 710.353 -648.543)"/><path d="M666.169 865.268h-72.377l-3.001 133.38h91.369l-15.991-133.38Z" style="fill:#cc9881;fill-rule:nonzero" transform="matrix(-1 0 0 1 710.353 -648.543)"/><path d="M598.652 998.648h70.564s2.914-71.741-36.742-71.741c-37.904 0-33.822 71.741-33.822 71.741Z" style="fill:#b5745d;fill-rule:nonzero" transform="matrix(-1 0 0 1 710.353 -648.543)"/><path d="m447.394 868.822 61.131 14.459-5.828 7.482-62.56-15.083 7.257-6.858Z" style="fill:#ef5252;fill-rule:nonzero" transform="matrix(-1 0 0 1 710.353 -648.543)"/><path d="m447.394 868.822 28.218 6.673 2.461 9.332-37.936-9.147 7.257-6.858Z" style="fill:#b22b3b;fill-rule:nonzero" transform="matrix(-1 0 0 1 710.353 -648.543)"/><path d="m484.693 884.914-44.76-10.688v1.698l44.76 10.689v-1.699Z" style="fill:#b22b3b;fill-rule:nonzero" transform="matrix(-1 0 0 1 710.353 -648.543)"/><path d="M548.279 777.94h-62.43l-3.045 220.708h79.688L548.279 777.94Z" style="fill:#edc7b2;fill-rule:nonzero" transform="matrix(-1 0 0 1 710.353 -648.543)"/><path d="m548.599 834.423 13.078.593-.982 19.926-11.223 6.108-.873-26.627Z" style="fill:#dbaa91;fill-rule:nonzero" transform="matrix(-1 0 0 1 710.353 -648.543)"/><path d="M563.828 838.923h-10.594l.137 5.556 9.218-2.315 1.239-3.241Z" style="fill:#683226;fill-rule:nonzero" transform="matrix(-1 0 0 1 710.353 -648.543)"/><path d="m548.992 840.313 16.847.354-16.259-46.883-.588 46.529Z" style="fill:#d3404e;fill-rule:nonzero" transform="matrix(-1 0 0 1 710.353 -648.543)"/><path d="m501.383 777.488-15.595.452-2.984 220.708h15.863l2.716-221.16Z" style="fill:#f9ddd2;fill-rule:nonzero" transform="matrix(-1 0 0 1 710.353 -648.543)"/><path d="m549.677 776.667-21.76 1.231 9.301 220.75h27.664l-15.205-221.981Z" style="fill:#dbaa91;fill-rule:nonzero" transform="matrix(-1 0 0 1 710.353 -648.543)"/><path d="m482.516 781.502 3.095 8.643 59.092 10.189-3.301-25.317-58.886 6.485Zm171.134 23.26.773 8.837 33.17 15.283 1.086-25.379-35.029 1.259Z" style="fill:#dbaa91;fill-rule:nonzero" transform="matrix(-1 0 0 1 710.353 -648.543)"/><path d="m481.231 780.988 1.101 3.498h70.076l2.201-3.498h-73.378Zm171.979 25.005.588 3.5h37.493l1.177-3.5H653.21Z" style="fill:#683226;fill-rule:nonzero" transform="matrix(-1 0 0 1 710.353 -648.543)"/><path style="fill:#dbaa91" d="M514.021 704.632h.826v46.513h-.826zm157.809 52.377h.619v25.114h-.619z" transform="matrix(-1 0 0 1 710.353 -648.543)"/><path d="M612.925 845.881c-4.027 1.215-11.242.302-10.404-1.42.84-1.722-7.719-3.848-13.424-2.804l.045 4.057c3.525-2.027 12.451-.849 9.856.875-1.92 1.273 5.875 4.458 11.746 1.621 5.875-2.836 15.775-1.013 15.775-1.013-1.008-.608-9.564-2.533-13.594-1.316ZM384.607 743.429c-4.027 1.216-11.245.304-10.405-1.416.84-1.724-7.72-3.851-13.425-2.805l.046 4.056c3.524-2.026 12.451-.849 9.854.874-1.92 1.274 5.874 4.458 11.747 1.622 5.874-2.836 15.776-1.014 15.776-1.014-1.008-.608-9.566-2.531-13.593-1.317Z" style="fill:#ffc064;fill-rule:nonzero" transform="matrix(-1 0 0 1 710.353 -648.543)"/><path d="M619.509 789.087c-1.519.458-4.242.116-3.926-.535.319-.651-2.912-1.452-5.064-1.058l.004.248h-.109v9.476h.234v-8.248c1.394-.684 4.56-.249 3.605.382-.724.483 2.217 1.683 4.434.615 2.215-1.072 5.951-.383 5.951-.383-.381-.23-3.609-.956-5.129-.497Z" style="fill:#ead3d7;fill-rule:nonzero" transform="matrix(-1 0 0 1 710.353 -648.543)"/><path d="M647.369 775.513c-1.52.579-4.244.146-3.926-.674.316-.82-2.914-1.831-5.067-1.335l.004.313h-.107v11.948h.234v-10.4c1.395-.861 4.559-.314 3.606.484-.725.607 2.215 2.123 4.431.774 2.217-1.351 5.954-.482 5.954-.482-.381-.29-3.612-1.207-5.129-.628Z" style="fill:#c9a9af;fill-rule:nonzero" transform="matrix(-1 0 0 1 710.353 -648.543)"/><path style="fill:#f4d5c6" d="M588.798 841.365h.619v25.112h-.619z" transform="matrix(-1 0 0 1 710.353 -648.543)"/><path d="M470.683 781.81h91.356l-13.297-7.403-34.69-24.099-32.533 25.746-10.836 5.756Z" style="fill:#ef5252;fill-rule:nonzero" transform="matrix(-1 0 0 1 710.353 -648.543)"/><path d="M496.195 781.81h65.844l-13.297-7.403-34.284-23.816c3.604 10.236-4.208 23.521-18.263 31.219Z" style="fill:#d3404e;fill-rule:nonzero" transform="matrix(-1 0 0 1 710.353 -648.543)"/><path d="M646.24 806.816h54.758l-7.971-6.639-20.793-21.612-19.5 23.087-6.494 5.164Z" style="fill:#ef5252;fill-rule:nonzero" transform="matrix(-1 0 0 1 710.353 -648.543)"/><path d="M661.531 806.816h39.467l-7.971-6.639-20.549-21.36c2.162 9.18-2.521 21.095-10.947 27.999Z" style="fill:#d3404e;fill-rule:nonzero" transform="matrix(-1 0 0 1 710.353 -648.543)"/><path d="M673.298 881.835H568.183l4.977 7 95.865-.586 4.273-6.414Z" style="fill:#683226;fill-rule:nonzero" transform="matrix(-1 0 0 1 710.353 -648.543)"/><path d="M673.298 881.835h-76.863l-3.045 7 75.756.442 4.152-7.442Z" style="fill:#51231b;fill-rule:nonzero" transform="matrix(-1 0 0 1 710.353 -648.543)"/><path d="m597.259 883.873 78.948-1.306-8.981-22.645-40.889-1.245-36.781-1.121 7.703 26.317Z" style="fill:#b22b3b;fill-rule:nonzero" transform="matrix(-1 0 0 1 710.353 -648.543)"/><path d="M603.642 998.648h60.57s2.502-64.584-31.537-64.584c-32.535 0-29.033 64.584-29.033 64.584Z" style="fill:#51231b;fill-rule:nonzero" transform="matrix(-1 0 0 1 710.353 -648.543)"/><path d="M607.72 998.648h33.362s1.376-48.278-17.37-48.278c-17.921 0-15.992 48.278-15.992 48.278Z" style="fill:#b78a92;fill-rule:nonzero" transform="matrix(-1 0 0 1 710.353 -648.543)"/><path d="M633.306 994.014v-7.534h5.143v7.534h-5.143Zm-5.969 0v-7.534h5.143v7.534h-5.143Zm-5.97 0v-7.536l5.142.002v7.534h-5.142Zm-5.971 0v-7.536h5.143v7.536h-5.143Zm-5.971 0v-7.536h5.143v7.536h-5.143Zm0-16.175h5.143v7.536h-5.143v-7.536Zm0-8.641h5.143v7.536h-5.143v-7.536Zm5.971-8.641h5.143v7.536h-5.143v-7.536Zm5.971-8.639h5.142v7.534h-5.142v-7.534Zm11.113 8.641v7.536h-5.143v-7.536h5.143Zm5.969 8.639v7.536h-5.143v-7.536h5.143Zm-11.112 8.642h5.143v7.535h-5.143v-7.535Zm-5.97-.001 5.142.001v7.535h-5.142v-7.536Zm5.142-8.641v7.536h-5.142v-7.536h5.142Zm5.971 7.536h-5.143v-7.536h5.143v7.536Zm-11.113-16.177 5.142.002v7.536l-5.142-.002v-7.536Zm-5.971 8.641h5.143v7.536h-5.143v-7.536Zm0 8.641h5.143v7.536h-5.143v-7.536Zm23.053 7.536h-5.143v-7.535h5.143v7.535Zm.83 8.639v-7.534h3.08c-.022-.36-.043-.73-.067-1.105h-3.013v-7.535h2.289a73.1 73.1 0 0 0-.149-1.106h-2.14v-7.536h.748c-.088-.37-.178-.736-.272-1.103h-.476v-1.766a52.378 52.378 0 0 0-.83-2.639v4.405h-5.143v-7.536h3.928a30.265 30.265 0 0 0-.506-1.107h-3.422v-5.384c-.267-.31-.543-.608-.826-.895v6.279h-5.143v-7.534h3.733c-.529-.41-1.08-.784-1.658-1.106h-2.075v-.904c-.273-.093-.548-.17-.828-.242v1.146h-5.142v-1.316c-.284.052-.557.116-.828.186v1.13h-2.706c-.546.322-1.068.694-1.568 1.106h4.274v7.534h-5.143v-6.748c-.285.275-.563.563-.828.867v5.881h-3.604c-.158.362-.316.73-.466 1.105h4.07v7.536h-5.143v-4.539c-.3.944-.576 1.913-.828 2.896v1.643h-.4c-.082.366-.164.735-.242 1.105h.642v7.536h-1.865c-.045.37-.086.738-.127 1.105h1.992v7.536h-2.576c-.016.375-.033.743-.045 1.103h2.621v7.536h-2.711c.008.456.018.826.028 1.104h2.683v.596h.828v-.596h5.143v.596h.828v-.596h5.143v.596h.828v-.596l5.142.002v.594h.828v-.594h5.143v.594h.826v-.594h5.143v.594h.83v-.594h3.275c.004-.277.01-.65.01-1.106h-3.285Z" style="fill:#51231b;fill-rule:nonzero" transform="matrix(-1 0 0 1 710.353 -648.543)"/><path d="M623.472 949.055c-19.871 0-17.73 46.903-17.73 46.903h1.242c-.152-5.222-.768-45.301 16.541-45.301 18.107 0 18.041 40.081 17.957 45.301h1.252s1.527-46.903-19.262-46.903Z" style="fill:#51231b;fill-rule:nonzero" transform="matrix(-1 0 0 1 710.353 -648.543)"/><path d="M605.308 995.643h2.002l-1.002 2.018-1-2.018Zm2.621 0h2.004l-1 2.018-1.004-2.018Zm6.01 0h2.004l-1.002 2.018-1.002-2.018Zm6.01 0h2.002l-1.002 2.018-1-2.018Zm6.008 0h2.003l-1.002 2.018-1.001-2.018Zm6.009 0h2.002l-1.002 2.018-1-2.018Zm6.008 0h2.004l-1.002 2.018-1.002-2.018Zm3.053 0h2.002l-1 2.018-1.002-2.018Z" style="fill:#51231b;fill-rule:nonzero" transform="matrix(-1 0 0 1 710.353 -648.543)"/><path d="M632.675 934.064a21.13 21.13 0 0 0-7.572 1.37c25.662 9.248 23.59 63.214 23.59 63.214h15.519s2.502-64.584-31.537-64.584Z" style="fill:#824634;fill-rule:nonzero" transform="matrix(-1 0 0 1 710.353 -648.543)"/><path d="M601.113 883.873h-34.672l6.693-24.574 17.033-1.743 10.946 26.317Z" style="fill:#d3404e;fill-rule:nonzero" transform="matrix(-1 0 0 1 710.353 -648.543)"/><path d="M538.099 867.015 503 865.123l4.005 16.403 26.508 5.249 4.586-19.76Z" style="fill:#dbaa91;fill-rule:nonzero" transform="matrix(-1 0 0 1 710.353 -648.543)"/><path d="M512.599 866.4h15.594c0-31.977-15.594-32.238-15.594 0Z" style="fill:#b5745d;fill-rule:nonzero" transform="matrix(-1 0 0 1 710.353 -648.543)"/><path d="M514.939 864.854h10.916c0-26.236-10.916-26.451-10.916 0Z" style="fill:#7f3f32;fill-rule:nonzero" transform="matrix(-1 0 0 1 710.353 -648.543)"/><path d="M601.113 883.873h-17.612l.276-24.574 6.912-.491 10.424 25.065Z" style="fill:#ef5252;fill-rule:nonzero" transform="matrix(-1 0 0 1 710.353 -648.543)"/><path style="fill:#d3404e" d="M565.617 882.248h36.506v1.85h-36.506z" transform="matrix(-1 0 0 1 710.353 -648.543)"/><path d="M677.333 882.248h-77.046v1.85l77.046.002v-1.852Z" style="fill:#d3404e;fill-rule:nonzero" transform="matrix(-1 0 0 1 710.353 -648.543)"/><path d="M607.257 907.561h3.78c0-15.579-3.78-15.707-3.78 0Z" style="fill:#b5745d;fill-rule:nonzero" transform="matrix(-1 0 0 1 710.353 -648.543)"/><path d="M607.257 907.561h1.891c0-11.48-1.891-11.574-1.891 0Z" style="fill:#6b3b2c;fill-rule:nonzero" transform="matrix(-1 0 0 1 710.353 -648.543)"/><path d="M581.593 907.561h-3.779c0-15.579 3.779-15.707 3.779 0Z" style="fill:#b5745d;fill-rule:nonzero" transform="matrix(-1 0 0 1 710.353 -648.543)"/><path d="M581.593 907.561h-1.89c0-11.48 1.89-11.574 1.89 0Z" style="fill:#6b3b2c;fill-rule:nonzero" transform="matrix(-1 0 0 1 710.353 -648.543)"/><path d="M622.662 907.561h3.779c0-15.579-3.779-15.707-3.779 0Z" style="fill:#b5745d;fill-rule:nonzero" transform="matrix(-1 0 0 1 710.353 -648.543)"/><path d="M622.662 907.561h1.888c0-11.48-1.888-11.574-1.888 0Z" style="fill:#6b3b2c;fill-rule:nonzero" transform="matrix(-1 0 0 1 710.353 -648.543)"/><path d="M638.064 907.561h3.779c0-15.579-3.779-15.707-3.779 0Z" style="fill:#b5745d;fill-rule:nonzero" transform="matrix(-1 0 0 1 710.353 -648.543)"/><path d="M638.064 907.561h1.893c0-11.48-1.893-11.574-1.893 0Z" style="fill:#6b3b2c;fill-rule:nonzero" transform="matrix(-1 0 0 1 710.353 -648.543)"/><path d="M653.468 907.561h3.78c0-15.579-3.78-15.707-3.78 0Z" style="fill:#b5745d;fill-rule:nonzero" transform="matrix(-1 0 0 1 710.353 -648.543)"/><path d="M653.468 907.561h1.889c0-11.48-1.889-11.574-1.889 0Z" style="fill:#6b3b2c;fill-rule:nonzero" transform="matrix(-1 0 0 1 710.353 -648.543)"/><path d="M401.892 998.648h-8.987l6.738-50.38 3.99-4.83h3.716l-5.457 55.21Zm-15.775 0h-8.989l6.739-50.38 3.991-4.83 3.443.329-5.184 54.881Zm-15.777 0h-8.987l6.738-50.38 3.992-4.83h3.714l-5.457 55.21Zm-15.775 0h-8.988l6.738-50.38 3.991-4.83h3.715l-5.456 55.21Z" style="fill:#f9ddd2;fill-rule:nonzero" transform="matrix(-1 0 0 1 710.353 -648.543)"/><path d="m328.199 976.353-.071-8.083-.109-.15-.064 8.335.244-.102Z" style="fill:#eabda9;fill-rule:nonzero" transform="matrix(-1 0 0 1 710.353 -648.543)"/><path d="m326.109 970.278 10.256.296.188-.391-10.492-.229.048.324Z" style="fill:#eabda9;fill-rule:nonzero" transform="matrix(-1 0 0 1 710.353 -648.543)"/><path d="M338.79 998.648h-8.989l6.739-50.38 3.991-4.83h3.714l-5.455 55.21Z" style="fill:#f9ddd2;fill-rule:nonzero" transform="matrix(-1 0 0 1 710.353 -648.543)"/><path d="M405.608 998.648h-8.988l6.738-50.38 3.991-4.83-1.741 55.21Zm-15.776 0h-8.989l6.739-50.38 3.991-4.83-1.741 55.21Zm-15.777 0h-8.987l6.738-50.38 3.991-4.83-1.742 55.21Zm-15.775 0h-8.988l6.738-50.38 3.991-4.83-1.741 55.21Zm-15.777 0h-8.988l6.739-50.38 3.991-4.83-1.742 55.21Z" style="fill:#dbaa91;fill-rule:nonzero" transform="matrix(-1 0 0 1 710.353 -648.543)"/><path d="M602.396 886.672h-3.484l-.643 4.116h3.486l.641-4.116Z" style="fill:#cc9881;fill-rule:nonzero" transform="matrix(-1 0 0 1 710.353 -648.543)"/><path d="M574.421 886.672h2.711l.498 4.116h-2.711l-.498-4.116Zm13.666 0h2.711l.5 4.116h-2.713l-.498-4.116Zm-8.164 0h2.711l.5 4.116h-2.713l-.498-4.116Z" style="fill:#dbaa91;fill-rule:nonzero" transform="matrix(-1 0 0 1 710.353 -648.543)"/><path d="M610.466 886.672h-3.484l-.643 4.116h3.487l.64-4.116Zm8.073 0h-3.485l-.642 4.116h3.484l.643-4.116Zm8.072 0h-3.486l-.641 4.116h3.484l.643-4.116Zm8.07 0h-3.486l-.641 4.116h3.485l.642-4.116Zm8.07 0h-3.484l-.642 4.116h3.484l.642-4.116Zm8.073 0h-3.485l-.642 4.116h3.484l.643-4.116Zm8.07 0h-3.484l-.643 4.116h3.486l.641-4.116Zm8.07 0h-3.484l-.641 4.116h3.485l.64-4.116Z" style="fill:#cc9881;fill-rule:nonzero" transform="matrix(-1 0 0 1 710.353 -648.543)"/><path d="m584.144 860.224 6.787-1.029 76.295.727-76.478-2.372-7.338.822.734 1.852Z" style="fill:#ef5252;fill-rule:nonzero" transform="matrix(-1 0 0 1 710.353 -648.543)"/><path d="m647.341 939.872 4.127-5.247-2.34 6.173-1.787-.926Zm-7.078-3.428 3.301-5.939-1.4 6.523-1.901-.584Zm-7.734-1.209.957-6.919.98 6.605-1.937.314Zm20.824 11.944 5.773-2.652-4.537 4.371-1.236-1.719Zm4.592 9.631 6.183-.414-5.519 2.492-.664-2.078Zm3.332 15.012 6.166.743-5.828 1.422-.338-2.165Zm1.738 13.967 5.625.826-5.271 1.2-.354-2.026Z" style="fill:#824634;fill-rule:nonzero" transform="matrix(-1 0 0 1 710.353 -648.543)"/><path d="m607.195 991.831-6.238.05 5.66-2.163.578 2.113Zm-1.069-10.856-5.876-2.2 5.951-.007-.075 2.207Zm1.889-15.325-5.474-3.265 5.878 1.113-.404 2.152Zm3.022-13.688-4.948-3.117 5.293 1.088-.345 2.029Zm6.318-10.151-2.436-5.744 3.752 4.302-1.316 1.442Zm7.266-4.585-.35-6.349 2.039 5.551-1.689.798Z" style="fill:#51231b;fill-rule:nonzero" transform="matrix(-1 0 0 1 710.353 -648.543)"/><path style="fill:#f4d5c6" d="M588.179 988.255h4.586v10.393h-4.586zm-.365-13.085h4.584v10.393h-4.584zm-.186-20.479h4.588v10.393h-4.588z" transform="matrix(-1 0 0 1 710.353 -648.543)"/><path style="fill:#cc9881" d="M590.748 944.299h4.585v10.392h-4.585z" transform="matrix(-1 0 0 1 710.353 -648.543)"/><path style="fill:#f4d5c6" d="M588.546 933.596h4.586v10.393h-4.586zm-.091-11.01h4.586v10.393h-4.586z" transform="matrix(-1 0 0 1 710.353 -648.543)"/><path d="M671.052 895.11h-4.588l1.239 10.34h4.586l-1.237-10.34Zm1.787 10.651h-4.586l1.239 10.34h4.584l-1.237-10.34Zm.963 10.805h-4.586l1.237 10.341h4.588l-1.239-10.341Zm1.239 11.267h-4.586l1.236 10.342h4.588l-1.238-10.342Zm2.201 10.805h-4.586l1.238 10.341h4.586l-1.238-10.341Zm.55 10.961h-4.585l1.236 10.339h4.586l-1.237-10.339Zm2.752 10.805h-4.586l1.237 10.34h4.588l-1.239-10.34Zm.413 10.959h-4.586l1.236 10.339h4.588l-1.238-10.339Zm2.751 10.65h-4.585l1.236 10.341h4.588l-1.239-10.341Zm-.275 10.617h-4.586l1.236 6.018h4.588l-1.238-6.018Z" style="fill:#cc9881;fill-rule:nonzero" transform="matrix(-1 0 0 1 710.353 -648.543)"/><path style="fill:#cc9881" d="M591.39 911.781h4.586v10.393h-4.586zm.643-10.704h4.586v10.394h-4.586zm-1.194 63.905h4.588v10.394h-4.588z" transform="matrix(-1 0 0 1 710.353 -648.543)"/><path style="fill:#dbaa91" d="M569.791 988.255h4.585v10.393h-4.585zm.548-11.852h4.588v10.396h-4.588zm-.412-11.01h4.586v10.393h-4.586zm.688-10.805h4.588v10.392h-4.588zm0-11.423h4.588v10.392h-4.588zm.963-10.806h4.588v10.394h-4.588zm-.688-11.113h4.588v10.392h-4.588zm.688-9.62h4.588v8.745h-4.588zm-.688-10.189h4.588v9.364h-4.588zm.551-10.804h4.586v9.363h-4.586z" transform="matrix(-1 0 0 1 710.353 -648.543)"/><path d="M588.455 932.979h-10.731l.274 1.028 10.548-.411-.091-.617Zm-2.385 20.889h-10.731l.274 1.028 10.547-.41-.09-.618Zm-1.008 21.404H574.33l.275 1.028 10.549-.411-.092-.617Zm4.154-75.677h-7.638l.195 1.026 7.508-.411-.065-.615Z" style="fill:#dbaa91;fill-rule:nonzero" transform="matrix(-1 0 0 1 710.353 -648.543)"/><path d="M594.72 911.171h-7.638l.195 1.026 7.508-.409-.065-.617Z" style="fill:#cc9881;fill-rule:nonzero" transform="matrix(-1 0 0 1 710.353 -648.543)"/><path d="M504.55 901.346h-10.083l.259 1.355 9.91-.542-.086-.813Z" style="fill:#edc7b2;fill-rule:nonzero" transform="matrix(-1 0 0 1 710.353 -648.543)"/><path d="M535.55 904.886h-10.082l.258 1.355 9.912-.541-.088-.814Zm-.918-67.094H524.55l.256 1.354 9.912-.541-.086-.813Zm6.602 121.357h-10.082l.258 1.356 9.912-.542-.088-.814Z" style="fill:#dbaa91;fill-rule:nonzero" transform="matrix(-1 0 0 1 710.353 -648.543)"/><path d="M504.917 822.214h-10.082l.259 1.355 9.911-.542-.088-.813ZM504 958.189h-10.082l.257 1.358 9.912-.542-.087-.816Z" style="fill:#edc7b2;fill-rule:nonzero" transform="matrix(-1 0 0 1 710.353 -648.543)"/><path d="M520.112 972.905h-21.791l.557 1.356 21.422-.542-.188-.814Z" style="fill:#dbaa91;fill-rule:nonzero" transform="matrix(-1 0 0 1 710.353 -648.543)"/><path d="M459.025 953.456h-21.792l.559 1.355 21.421-.542-.188-.813Zm-10.993-29.945h-10.248l.262 1.355 10.074-.542-.088-.813Z" style="fill:#cc9881;fill-rule:nonzero" transform="matrix(-1 0 0 1 710.353 -648.543)"/><path d="M494.278 861.872h-10.082l.258 1.355 9.911-.542-.087-.813Z" style="fill:#edc7b2;fill-rule:nonzero" transform="matrix(-1 0 0 1 710.353 -648.543)"/><path d="M594.306 943.886h-7.639l.198 1.028 7.508-.41-.067-.618Zm2.567-21.712h-7.637l.195 1.028 7.508-.412-.066-.616Z" style="fill:#cc9881;fill-rule:nonzero" transform="matrix(-1 0 0 1 710.353 -648.543)"/><path style="fill:#f9ddd2" d="M479.764 981.36h10.456v17.288h-10.456zm1.926-19.654h10.456v17.288H481.69zm-1.376-19.982h10.457v17.289h-10.457z" transform="matrix(-1 0 0 1 710.353 -648.543)"/><path style="fill:#cc9881" d="M443.625 884.716h6.788v12.761h-6.788zm0 13.583h6.788v12.762h-6.788zm-1.652 14.613h6.788v12.76h-6.788z" transform="matrix(-1 0 0 1 710.353 -648.543)"/><path style="fill:#dbaa91" d="M438.487 924.435h6.788v12.761h-6.788z" transform="matrix(-1 0 0 1 710.353 -648.543)"/><path style="fill:#f9ddd2" d="M417.755 914.763h6.788v13.583h-6.788zm-.55-14.407h6.788v13.582h-6.788z" transform="matrix(-1 0 0 1 710.353 -648.543)"/><path d="m339.98 919.905-6.792.619v13.583l6.792-.618v-13.584Zm-.366-10.999-6.793.443v9.733l6.793-.444v-9.732Zm1.1-10.909-6.793.443v9.734l6.793-.445v-9.732Zm-1.284-10.907-6.792.444v9.732l6.792-.443v-9.733Zm1.101-10.496-6.792.443v9.733l6.792-.444v-9.732Zm-.185-11.32-6.792.444v9.733l6.792-.444v-9.733Z" style="fill:#f9ddd2;fill-rule:nonzero" transform="matrix(-1 0 0 1 710.353 -648.543)"/><path style="fill:#f9ddd2" d="M415.003 859.812h6.789v12.553h-6.789zm.551 14.201h6.788v13.582h-6.788zm1.101 14.612h6.788v10.701h-6.788z" transform="matrix(-1 0 0 1 710.353 -648.543)"/><path style="fill:#dbaa91" d="M435.462 941.105h10.731v12.761h-10.731z" transform="matrix(-1 0 0 1 710.353 -648.543)"/><path style="fill:#cc9881" d="M441.515 932.307h5.642v12.298h-5.642zm-.183 22.177h6.788v12.762h-6.788zm.826 13.893h6.787v12.761h-6.787z" transform="matrix(-1 0 0 1 710.353 -648.543)"/><path style="fill:#dbaa91" d="M439.221 902.002h5.321v11.938h-5.321z" transform="matrix(-1 0 0 1 710.353 -648.543)"/><path style="fill:#edc7b2" d="M527.826 942.135h11.191v17.288h-11.191z" transform="matrix(-1 0 0 1 710.353 -648.543)"/><path style="fill:#f9ddd2" d="M492.055 902.619h11.191v17.29h-11.191zm-.183-27.166h11.192v17.289h-11.192zm-1.286 53.1h11.192v17.288h-11.192zm.367 46.101h11.192v17.288h-11.192z" transform="matrix(-1 0 0 1 710.353 -648.543)"/><path style="fill:#dbaa91" d="M532.779 974.963h11.191v17.288h-11.191z" transform="matrix(-1 0 0 1 710.353 -648.543)"/><path style="fill:#f9ddd2" d="M492.054 840.262h11.191v17.288h-11.191z" transform="matrix(-1 0 0 1 710.353 -648.543)"/><path style="fill:#edc7b2" d="M520.854 800.539h11.192v17.287h-11.192zm1.469 22.432h9.356v15.231h-9.356z" transform="matrix(-1 0 0 1 710.353 -648.543)"/><path d="m553.015 792.256-6.969.105.161 13.479 6.968-.106-.16-13.478Zm.688 19.449-6.969.103 1.123 14.098 6.969-.105-1.123-14.096Zm1.037 16.734-6.041.097.933 10.479 6.043-.099-.935-10.477Zm2.232 32.284-4.42.073.701 10.468 4.422-.074-.703-10.467Zm.414 12.503-4.422.075.703 10.466 4.42-.074-.701-10.467Zm1.008 12.446-4.422.074.703 10.467 4.422-.075-.703-10.466Zm.688 12.349-4.42.072.701 10.468 4.422-.073-.703-10.467Zm1.101 14.046-4.422.072.701 10.469 4.424-.074-.703-10.467Zm.963 15.126-4.422.072.701 10.469 4.424-.073-.703-10.468Zm.549 13.43-4.42.073.701 10.467 4.422-.073-.703-10.467Zm3.853 45.998-4.42.073.702 10.468 4.421-.072-.703-10.469Zm-1.238-11.268-4.422.073.703 10.468 4.422-.074-.703-10.467Zm-.412-12.658-4.422.074.701 10.467 4.422-.074-.701-10.467Zm-.541-9.732-4.42.07.684 8.892 4.421-.073-.685-8.889Z" style="fill:#dbaa91;fill-rule:nonzero" transform="matrix(-1 0 0 1 710.353 -648.543)"/><path style="fill:#edc7b2" d="M525.076 890.066h9.355v15.231h-9.355zm.734 17.904h9.356v15.232h-9.356zm1.102 17.907h9.355v15.23h-9.355z" transform="matrix(-1 0 0 1 710.353 -648.543)"/><path style="fill:#f9ddd2" d="M481.69 921.967h10.456v17.289H481.69z" transform="matrix(-1 0 0 1 710.353 -648.543)"/><path d="M478.295 921.967h-5.594l1.651 11.731h5.594l-1.651-11.731Zm-2.752-10.593h-5.594l1.651 9.975h5.595l-1.652-9.975Z" style="fill:#edc7b2;fill-rule:nonzero" transform="matrix(-1 0 0 1 710.353 -648.543)"/><path style="fill:#f9ddd2" d="M481.69 901.593h10.456v17.288H481.69zm0-19.451h10.456v17.287H481.69zm.826-18.832h10.456v17.29h-10.456zm.824-17.596h10.457v16.052H483.34zm-.549-18.214h10.457v16.053h-10.457z" transform="matrix(-1 0 0 1 710.353 -648.543)"/><path d="m492.421 791.381-8.805-2.161v16.054h8.805v-13.893Z" style="fill:#f9ddd2;fill-rule:nonzero" transform="matrix(-1 0 0 1 710.353 -648.543)"/><path style="fill:#f9ddd2" d="M482.791 807.742h8.805v16.055h-8.805z" transform="matrix(-1 0 0 1 710.353 -648.543)"/><path d="M495.174 912.343v-11.31l-1.21.288.485 11.12.725-.098Z" style="fill:#edc7b2;fill-rule:nonzero" transform="matrix(-1 0 0 1 710.353 -648.543)"/><path d="M523.148 894.443v-11.311l-1.208.29.485 11.117.723-.096Zm63.105 66.666v-11.312l-1.207.291.483 11.117.724-.096Zm-66.314-25.351v-17.495l-1.21.448.485 17.197.725-.15Zm-4.546 49.687v-17.497l-1.208.449.484 17.196.724-.148Zm-2.885-181.199v-11.63l-1.208.3.485 11.431.723-.101Z" style="fill:#dbaa91;fill-rule:nonzero" transform="matrix(-1 0 0 1 710.353 -648.543)"/><path d="M515.439 925.363h21.008l-.539-1.355-20.65.542.181.813Zm150.111-73.186v-8.007l-.439.206.178 7.871.261-.07Zm7.17-23.762v-8.006l-.439.204.176 7.87.263-.068Z" style="fill:#dbaa91;fill-rule:nonzero" transform="matrix(-1 0 0 1 710.353 -648.543)"/><path d="M663.914 847.421h7.642l-.195-.621-7.512.247.065.374Zm-9.629-9.734h7.64l-.195-.619-7.51.25.065.369Zm25.316 28.403h7.641l-.198-.619-7.509.247.066.372Zm1.1 25.006h7.64l-.195-.621-7.51.248.065.373Zm-3.852-57.112h7.641l-.196-.621-7.511.25.066.371Zm-268.014 80.779h18.463l-.471-1.355-18.15.542.158.813Zm-66.444-17.296 14.141-1.194.14-.853-14.403 1.244.122.803Z" style="fill:#dbaa91;fill-rule:nonzero" transform="matrix(-1 0 0 1 710.353 -648.543)"/><path d="m352.121 891.513.825 9.875.76.157-.869-10.06-.716.028Zm21.486 16.015h17.811l-.456-1.076-17.507.431.152.645Z" style="fill:#dbaa91;fill-rule:nonzero" transform="matrix(-1 0 0 1 710.353 -648.543)"/><path d="M377.184 904.775v11.086l.958-.284-.385-10.898-.573.096Zm10.308 5.241v-10.211l-.884.262.354 10.036.53-.087Z" style="fill:#dbaa91;fill-rule:nonzero" transform="matrix(-1 0 0 1 710.353 -648.543)"/><path d="M476.413 910.067v-10.896l.674.372-.269 10.674-.405-.15Z" style="fill:#cc9881;fill-rule:nonzero" transform="matrix(-1 0 0 1 710.353 -648.543)"/><path d="m478.929 903.943-11.756-1.633.302-.802 11.555 1.941-.101.494Z" style="fill:#cc9881;fill-rule:nonzero" transform="matrix(-1 0 0 1 710.353 -648.543)"/><path d="M517.554 818.856h6.237c0-23.775-6.237-23.971-6.237 0Z" style="fill:#b5745d;fill-rule:nonzero" transform="matrix(-1 0 0 1 710.353 -648.543)"/><path d="M518.49 817.71h4.364c0-19.512-4.364-19.669-4.364 0Z" style="fill:#7f3f32;fill-rule:nonzero" transform="matrix(-1 0 0 1 710.353 -648.543)"/><path d="M341.503 799.925h2.692c0-15.034-2.692-15.158-2.692 0Z" style="fill:#b5745d;fill-rule:nonzero" transform="matrix(-1 0 0 1 710.353 -648.543)"/><path d="M341.908 799.198h1.883c0-12.336-1.883-12.435-1.883 0Z" style="fill:#7f3f32;fill-rule:nonzero" transform="matrix(-1 0 0 1 710.353 -648.543)"/><path d="M542.052 818.96h3.78c0-23.094-3.78-23.284-3.78 0Z" style="fill:#b5745d;fill-rule:nonzero" transform="matrix(-1 0 0 1 710.353 -648.543)"/><path d="M542.052 818.96h1.889c0-17.018-1.889-17.156-1.889 0Z" style="fill:#6b3b2c;fill-rule:nonzero" transform="matrix(-1 0 0 1 710.353 -648.543)"/><path d="M449.294 836.455h5.248c0-23.094-5.248-23.284-5.248 0Z" style="fill:#b5745d;fill-rule:nonzero" transform="matrix(-1 0 0 1 710.353 -648.543)"/><path d="M449.294 836.455h2.625c0-17.017-2.625-17.157-2.625 0Z" style="fill:#6b3b2c;fill-rule:nonzero" transform="matrix(-1 0 0 1 710.353 -648.543)"/><path d="M349.656 742.709h2.429c0-15.991-2.429-16.121-2.429 0Z" style="fill:#b5745d;fill-rule:nonzero" transform="matrix(-1 0 0 1 710.353 -648.543)"/><path d="M349.656 742.709h1.215c0-11.784-1.215-11.88-1.215 0Z" style="fill:#6b3b2c;fill-rule:nonzero" transform="matrix(-1 0 0 1 710.353 -648.543)"/><path d="M544.273 862.488h4.016c0-27.191-4.016-27.415-4.016 0Z" style="fill:#b5745d;fill-rule:nonzero" transform="matrix(-1 0 0 1 710.353 -648.543)"/><path d="M544.273 862.488h2.008c0-20.037-2.008-20.2-2.008 0Z" style="fill:#6b3b2c;fill-rule:nonzero" transform="matrix(-1 0 0 1 710.353 -648.543)"/><path d="M492.267 818.96h-3.779c0-23.094 3.779-23.284 3.779 0Z" style="fill:#cc9881;fill-rule:nonzero" transform="matrix(-1 0 0 1 710.353 -648.543)"/><path d="M492.267 818.96h-1.892c0-17.018 1.892-17.156 1.892 0Z" style="fill:#b5745d;fill-rule:nonzero" transform="matrix(-1 0 0 1 710.353 -648.543)"/><path d="M346.373 885.049h-3.187c0-23.096 3.187-23.285 3.187 0Z" style="fill:#cc9881;fill-rule:nonzero" transform="matrix(-1 0 0 1 710.353 -648.543)"/><path d="M346.373 885.049h-1.594c0-17.02 1.594-17.159 1.594 0Z" style="fill:#b5745d;fill-rule:nonzero" transform="matrix(-1 0 0 1 710.353 -648.543)"/><path d="M365.083 885.049h-3.185c0-23.096 3.185-23.285 3.185 0Z" style="fill:#cc9881;fill-rule:nonzero" transform="matrix(-1 0 0 1 710.353 -648.543)"/><path d="M365.083 885.049h-1.593c0-17.02 1.593-17.159 1.593 0Z" style="fill:#b5745d;fill-rule:nonzero" transform="matrix(-1 0 0 1 710.353 -648.543)"/><path d="M383.795 885.049h-3.186c0-23.096 3.186-23.285 3.186 0Z" style="fill:#cc9881;fill-rule:nonzero" transform="matrix(-1 0 0 1 710.353 -648.543)"/><path d="M383.795 885.049h-1.593c0-17.02 1.593-17.159 1.593 0Z" style="fill:#b5745d;fill-rule:nonzero" transform="matrix(-1 0 0 1 710.353 -648.543)"/><path d="M402.506 885.049h-3.185c0-23.096 3.185-23.285 3.185 0Z" style="fill:#cc9881;fill-rule:nonzero" transform="matrix(-1 0 0 1 710.353 -648.543)"/><path d="M402.506 885.049h-1.593c0-17.02 1.593-17.159 1.593 0Z" style="fill:#b5745d;fill-rule:nonzero" transform="matrix(-1 0 0 1 710.353 -648.543)"/><path d="M492.267 862.488h-3.779c0-25.908 3.779-26.12 3.779 0Z" style="fill:#cc9881;fill-rule:nonzero" transform="matrix(-1 0 0 1 710.353 -648.543)"/><path d="M492.267 862.488h-1.892c0-19.091 1.892-19.248 1.892 0Z" style="fill:#b5745d;fill-rule:nonzero" transform="matrix(-1 0 0 1 710.353 -648.543)"/><path d="M667.31 833.317h-6.125c0-16.515 6.125-16.65 6.125 0Z" style="fill:#cc9881;fill-rule:nonzero" transform="matrix(-1 0 0 1 710.353 -648.543)"/><path d="M667.31 833.317h-3.066c0-12.168 3.066-12.268 3.066 0Z" style="fill:#b5745d;fill-rule:nonzero" transform="matrix(-1 0 0 1 710.353 -648.543)"/><path d="M613.404 921.04h-8.988v7.411h8.003l.985-7.411Zm43.385 0h-6.698v7.411h5.965l.733-7.411Z" style="fill:#dbaa91;fill-rule:nonzero" transform="matrix(-1 0 0 1 710.353 -648.543)"/><path d="m614.32 921.04-7.981-.102c1.403 3.02 2.067 11.046 2.641 15.615l2.477-10.341 3.001 7.877c1.331-6.158.698-9.24-.138-13.049Z" style="fill:#f4b54e;fill-rule:nonzero" transform="matrix(-1 0 0 1 710.353 -648.543)"/><path d="m469.514 780.5 1.169 1.31 91.492.463 1.653-3.086-94.314 1.313Zm176.382 25.313.697.969 54.52.345.984-2.282-56.201.968Z" style="fill:#b22b3b;fill-rule:nonzero" transform="matrix(-1 0 0 1 710.353 -648.543)"/><path d="M487.689 783.412h-1.688l1.249 3.955h1.229l-.79-3.955Zm4.402 0h-1.687l1.248 3.955h1.229l-.79-3.955Zm4.404 0h-1.688l1.247 3.955h1.231l-.79-3.955Zm4.402 0h-1.688l1.249 3.955h1.229l-.79-3.955Zm4.403 0h-1.687l1.248 3.955h1.228l-.789-3.955Zm4.403 0h-1.688l1.248 3.955h1.229l-.789-3.955Zm5.32-.161h-1.688l.331 4.116h1.227l.13-4.116Zm4.31.161h-1.687l.422 3.955h1.228l.037-3.955Zm3.325 0h1.687l-1.248 3.955h-1.228l.789-3.955Zm4.127 0h1.687l-1.246 3.955h-1.23l.789-3.955Zm4.127 0h1.687l-1.246 3.955h-1.23l.789-3.955Zm4.129 0h1.685l-1.246 3.955h-1.229l.79-3.955Zm4.126 0h1.686l-1.246 3.955h-1.229l.789-3.955Zm4.127 0h1.688l-1.248 3.955h-1.229l.789-3.955Zm4.129 0h1.686l-1.246 3.955h-1.229l.789-3.955Z" style="fill:#683226;fill-rule:nonzero" transform="matrix(-1 0 0 1 710.353 -648.543)"/><path d="M551.859 856.519h-10.846l1.195 7.876h8.456l1.195-7.876Z" style="fill:#dbaa91;fill-rule:nonzero" transform="matrix(-1 0 0 1 710.353 -648.543)"/><path d="M551.859 856.519h-2.754l-6.897 7.876h8.456l1.195-7.876Z" style="fill:#edc7b2;fill-rule:nonzero" transform="matrix(-1 0 0 1 710.353 -648.543)"/><path style="fill:#edc7b2" d="M515.261 852.655h10.455v1.085h-10.455z" transform="matrix(-1 0 0 1 710.353 -648.543)"/><path style="fill:#edc7b2" d="M520.005 844.79h.967v18.34h-.967z" transform="matrix(-1 0 0 1 710.353 -648.543)"/><path d="M513.955 864.307h1.16c0-24.238 10.564-24.042 10.564 0h1.158c0-26.419-12.882-26.634-12.882 0Z" style="fill:#edc7b2;fill-rule:nonzero" transform="matrix(-1 0 0 1 710.353 -648.543)"/><path d="M537 863.13h-34.612l3.815 12.402h26.982L537 863.13Z" style="fill:#f4d5c6;fill-rule:nonzero" transform="matrix(-1 0 0 1 710.353 -648.543)"/><path d="M513.745 870.411h-3.3l-1.238 6.639h5.779l-1.241-6.639Zm13.21 0h-3.301l-1.24 6.639h5.779l-1.238-6.639Z" style="fill:#dbaa91;fill-rule:nonzero" transform="matrix(-1 0 0 1 710.353 -648.543)"/><path d="m442.066 785.514-40.504 60.322 36.584-59.383 3.92-.939Zm-28.101-1.15-41.808 61.561 37.869-60.603 3.939-.958Zm-33.111.1-41.811 61.559 37.871-60.601 3.94-.958Zm115.699-6.386 8.765-.274 3.433-3.774-3.703 3.051-7.06.194 1.029-2.923-2.464 3.726Zm-2.843-3.752 8.766-.273 3.434-3.774-3.704 3.049-7.062.192 1.03-2.922-2.464 3.728Z" style="fill:#d3404e;fill-rule:nonzero" transform="matrix(-1 0 0 1 710.353 -648.543)"/><path d="m502.791 770.929 8.765-.273 3.436-3.773-3.707 3.05-7.061.193 1.029-2.922-2.462 3.725Zm-2.018-5.367 8.764-.274 3.435-3.774-3.705 3.051-7.061.193 1.03-2.921-2.463 3.725Z" style="fill:#d3404e;fill-rule:nonzero" transform="matrix(-1 0 0 1 710.353 -648.543)"/><path d="m507.748 761.853 8.851-.27 1.32-3.871-2.021 3.128-7.147.188-.654-3.001-.349 3.826Zm-15.125 8.786 7.115-.218 3.309-3.202-3.423 2.586-5.73.154 1.246-2.484-2.517 3.164Zm-6.903 7.044 6.867-.182 3.724-3.428-3.729 2.764-5.525.12 1.619-2.666-2.956 3.392Z" style="fill:#d3404e;fill-rule:nonzero" transform="matrix(-1 0 0 1 710.353 -648.543)"/><path d="M512.69 766.993h-5.687l-1.191 3.086h5.688l1.19-3.086Zm-5.597 7.511h-5.684l-1.191 2.571h5.686l1.189-2.571Zm8.714-3.088h-5.686l-1.192 2.572h5.688l1.19-2.572Zm.917-13.58h4.932l.209 2.569h-4.934l-.207-2.569Zm7.016 8.335h4.933l.209 2.569h-4.935l-.207-2.569Zm-9.581-15.077 3.921 3.344.209 2.573h-4.936l.806-5.917Z" style="fill:#ef5252;fill-rule:nonzero" transform="matrix(-1 0 0 1 710.353 -648.543)"/><path d="m659.451 804.323 6.513-.205 2.555-2.803-2.754 2.267-5.25.142.766-2.17-1.83 2.769Zm-2.116-2.79 6.516-.203 2.555-2.805-2.756 2.267-5.248.144.765-2.174-1.832 2.771Z" style="fill:#d3404e;fill-rule:nonzero" transform="matrix(-1 0 0 1 710.353 -648.543)"/><path d="m664.085 799.01 6.518-.206 2.553-2.804-2.754 2.266-5.25.145.765-2.173-1.832 2.772Zm-1.5-3.993 6.516-.203 2.555-2.804-2.756 2.266-5.248.145.765-2.173-1.832 2.769Z" style="fill:#d3404e;fill-rule:nonzero" transform="matrix(-1 0 0 1 710.353 -648.543)"/><path d="m667.773 792.261 6.578-.2.982-2.881-1.503 2.329-5.311.14-.486-2.232-.26 2.844Zm-11.244 6.531 5.287-.161 2.461-2.38-2.545 1.921-4.26.115.928-1.848-1.871 2.353Zm-5.133 5.237 5.104-.135 2.769-2.549-2.773 2.054-4.106.09 1.203-1.981-2.197 2.521Z" style="fill:#d3404e;fill-rule:nonzero" transform="matrix(-1 0 0 1 710.353 -648.543)"/><path d="M671.445 796.083h-4.225l-.887 2.293h4.227l.885-2.293Zm-4.158 5.584h-4.227l-.887 1.911h4.227l.887-1.911Zm6.476-2.297h-4.226l-.885 1.912h4.224l.887-1.912Zm.682-10.097h3.668l.154 1.911h-3.67l-.152-1.911Zm5.215 6.198h3.668l.156 1.91h-3.67l-.154-1.91Zm-7.397-15.532 2.914 2.49.155 1.909h-3.668l.599-4.399Z" style="fill:#ef5252;fill-rule:nonzero" transform="matrix(-1 0 0 1 710.353 -648.543)"/><path d="m331.917 961.581.311-10.61-.338-.2-.755 10.941.782-.131Z" style="fill:#eabda9;fill-rule:nonzero" transform="matrix(-1 0 0 1 710.353 -648.543)"/><path d="M593.316 859.092h-4.311l2.202 4.117h4.312l-2.203-4.117Zm1.559 4.835h-4.311l2.203 4.117h4.311l-2.203-4.117Zm1.009 4.63h-4.31l2.203 4.119h4.308l-2.201-4.119Zm6.879 0h-4.31l2.203 4.119h4.31l-2.203-4.119Zm-4.402-9.673h-4.311l2.203 4.118h4.309l-2.201-4.118Z" style="fill:#ef5252;fill-rule:nonzero" transform="matrix(-1 0 0 1 710.353 -648.543)"/><path d="M607.187 862.216h-4.311l2.204 4.116h4.308l-2.201-4.116Zm5.758 13.856h-4.311l2.203 4.117h4.309l-2.201-4.117Z" style="fill:#d3404e;fill-rule:nonzero" transform="matrix(-1 0 0 1 710.353 -648.543)"/><path d="M599.001 873.189h-4.31l2.203 4.116h4.311l-2.204-4.116Zm1.926 4.734h-4.308l2.201 4.117h4.31l-2.203-4.117Z" style="fill:#ef5252;fill-rule:nonzero" transform="matrix(-1 0 0 1 710.353 -648.543)"/><path d="M668.527 860.224h-4.309l2.201 3.914h4.311l-2.203-3.914Zm1.56 4.597h-4.31l2.203 3.914h4.309l-2.202-3.914Zm1.008 4.402h-4.308l2.201 3.915h4.31l-2.203-3.915Zm3.119 4.403h-4.31l2.203 3.914h4.31l-2.203-3.914Zm1.926 4.502h-4.31l2.203 3.912h4.31l-2.203-3.912Z" style="fill:#b22b3b;fill-rule:nonzero" transform="matrix(-1 0 0 1 710.353 -648.543)"/><path d="m329.312 773.587 6.697-.221 2.252-3.039-2.532 2.457-5.398.155.491-2.353-1.51 3.001Zm-2.563-3.024 6.697-.217 2.251-3.041-2.532 2.456-5.399.156.492-2.353-1.509 2.999Z" style="fill:#d3404e;fill-rule:nonzero" transform="matrix(-1 0 0 1 710.353 -648.543)"/><path d="m333.37 767.829 6.697-.22 2.252-3.04-2.532 2.457-5.4.155.492-2.353-1.509 3.001Zm-2.096-4.323 6.697-.22 2.251-3.041-2.532 2.459-5.398.155.492-2.354-1.51 3.001Zm-17.691 8.16 5.316-.141 2.936-3.433-2.93 2.763-4.277.089 1.297-2.677-2.342 3.399Z" style="fill:#d3404e;fill-rule:nonzero" transform="matrix(-1 0 0 1 710.353 -648.543)"/><path d="m336.25 760.518 6.762-.216.619-3.12-1.233 2.521-5.463.151-.809-2.417.124 3.081Zm-10.713 7.078 5.438-.175 2.213-2.58-2.363 2.084-4.381.122.703-2.001-1.61 2.55Zm-2.844-2.47 5.437-.176 2.213-2.579-2.363 2.084-4.38.122.703-1.999-1.61 2.548Zm-.184-8.071 5.438-.175 2.214-2.58-2.365 2.086-4.379.122.703-2-1.611 2.547Zm-1.551 16.213 5.251-.147 2.509-2.759-2.58 2.226-4.226.096.97-2.146-1.924 2.73Z" style="fill:#d3404e;fill-rule:nonzero" transform="matrix(-1 0 0 1 710.353 -648.543)"/><path d="M341.482 764.317h-4.363l-1.517 2.827h4.363l1.517-2.827Zm-4.445 6.393h-4.364l-.651 2.068h4.362l.653-2.068Zm6.371-2.489-4.365.001-.65 2.072h4.363l.652-2.073Zm-4.902-11.003 5.125-.036-1.283 2.683h-3.787l-.055-2.647Zm7.886 4.925h3.785l.423 2.071h-3.787l-.421-2.071Z" style="fill:#ef5252;fill-rule:nonzero" transform="matrix(-1 0 0 1 710.353 -648.543)"/><path style="fill:#dbaa91" d="M655.322 807.846h7.062v3.292h-7.062zm12.289 0h7.062v3.292h-7.062zm13.943 0h7.061v3.292h-7.061z" transform="matrix(-1 0 0 1 710.353 -648.543)"/><path d="M660.273 920.938h-9.494c1.402 3.02 2.525 7.548 2.525 11.421l2.844-5.761 3.574 9.465c1.33-6.157 1.387-11.317.551-15.125Z" style="fill:#f4b54e;fill-rule:nonzero" transform="matrix(-1 0 0 1 710.353 -648.543)"/></svg>