<svg viewBox="0 0 564 20" xmlns="http://www.w3.org/2000/svg" xml:space="preserve" style="fill-rule:evenodd;clip-rule:evenodd;stroke-linejoin:round;stroke-miterlimit:2"><path d="M991.347 574.821s-.405 17.1 0 26.177h176.543l40.83.001h81.3c-.01-9.086-.6-32.831-.6-32.831-.46 1.99-1.96 15.988-1.96 15.988.13-2.058-.3-11.067-.3-11.067-.54 3.547-3.49 10.681-3.49 10.681.88-5.603-.59-19.638-.59-19.638.06 2.908-2.5 13.583-2.5 13.583-.11-2.297-4.81-13.822-4.81-13.822 1.19 3.464.36 19.533.36 19.533-.76-5.962-6.02-14.928-6.02-14.928 1.36 3.727 1.05 17.001 1.05 17.001-.56-2.863-2.39-6.117-3.95-8.509 1.13-12.52 3.01-26.841 3.01-26.841-1.7 2.846-10.11 32.549-10.11 32.549.33-3.148-.25-18.915-.25-18.915-1.19 7.136-6.22 19.413-6.22 19.413 1.18-8.582-2.7-34.998-2.7-34.998.45 6.585-2.64 27.487-2.64 27.487-.48-3.444-9.87-20.171-9.87-20.171 2.63 5.419 4.76 28.995 4.76 28.995-2.03-7.188-10.45-17.313-10.45-17.313 2.58 4.615 5.38 20.407 5.38 20.407-2.21-5.47-9.09-11.567-9.09-11.567 1.99 2.322 3.26 5.724 4.06 9.041-3.17-6.141-6.73-12.134-6.73-12.134-.15 2.805 1.98 16.521 1.98 16.521-.4-1.593-4.63-9.583-4.63-9.583.46 3.607-1.7 9.799-1.7 9.799-.81-4.341-10.83-17.745-10.83-17.745 1.98 3.338 3.76 13.91 3.76 13.91-1.27-1.748-14.53-10.276-14.53-10.276 3.89 2.76 11.48 14.716 11.48 14.716-1.36-1.345-3.68-2.895-6.06-4.319-.55-1.883-.95-3.202-.95-3.202 0 .36.12 1.494.28 2.805-1.21-.706-2.41-1.37-3.49-1.952-.57-1.661-1.05-2.909-1.05-2.909.15.502.23 1.457.28 2.502-2.01-1.06-3.45-1.755-3.45-1.755 1.01.653 2.25 1.745 3.49 2.98.05 1.675.02 3.228.02 3.228-.37-1.175-4.66-7.065-4.66-7.065.64.972 1.43 3.891 2.01 6.325-.9-.376-1.63-.666-2.06-.837-1.37-1.746-2.65-3.123-2.65-3.123 1.29 1.905 2.88 8.7 2.88 8.7-.71-1.465-2.22-3.127-3.45-4.349-1.01-6.41-1.81-13.741-1.81-13.741-.62 1.459-1.6 16.674-1.6 16.674-.23-1.612-2.66-9.68-2.66-9.68.25 3.654-1.07 9.946-1.07 9.946-.45-4.395-6.25-17.908-6.25-17.908 1.15 3.37 2.12 14.072 2.12 14.072-.74-1.762-8.48-10.308-8.48-10.308 2.27 2.77 6.65 14.831 6.65 14.831-2.15-3.675-8.43-8.843-8.43-8.843 2.13 2.358 5.87 10.435 5.87 10.435-2.02-2.796-6.87-5.905-6.87-5.905 1.47 1.185 2.67 2.925 3.59 4.621-2.68-3.138-5.57-6.199-5.57-6.199.16.786 1.15 3.241 2.02 5.304-.21.094-.49.226-.83.387-.94-1.12-1.82-2.137-1.82-2.137.33.811.43 1.878.44 2.82-.4.201-.82.419-1.24.645-.36-.43-.78-.896-1.24-1.383.85-1.248 1.8-2.459 2.58-2.986 0 0-1.68 1.015-3.41 2.123-1.13-1.15-2.36-2.331-3.38-3.281l.07-.179s-.03.053-.1.15c-1.23-1.149-2.13-1.956-2.13-1.956.53.56 1.15 1.519 1.74 2.553-.38.58-.93 1.444-1.48 2.386-2.81-1.458-6.09-3.061-6.09-3.061 1.33.708 3.52 2.607 5.37 4.319-.2.374-.39.746-.57 1.105-.99-.461-2.01-.898-2.91-1.271a2.24 2.24 0 0 1-.1-.482s-.06.145-.16.375c-.71-.296-1.34-.545-1.8-.724-.14-1.151-.3-2.179-.46-2.609 0 0-1.31 2.689-2.38 5.433.05-1.462.36-2.971 1.22-4.027 0 0-3.23 2.81-3.83 5.241 0 0-.36-6.936.56-9.003 0 0-3.61 4.597-3.89 7.771 0 0-1.73-10.307-.88-12.725 0 0-3.35 7.493-3.2 9.002 0 0-4.42-9.026-4.98-11.902 0 0 1.06 11.584 2.82 15.292 0 0-4.46-5.228-6.05-8.306 0 0 1.65 6.874 2.24 8.236 0 0-8.63-12.734-9.97-13.934 0 0 2.89 6.189 5.12 11.613-.61 1.076-1.26 2.533-1.23 3.792 0 0-1.84-5.77-1.52-7.422 0 0-1.08 2.259-1.5 4.49-.23.105-.48.218-.74.341-.24-.73-.52-1.607-.79-2.491.74-.643 1.42-1.177 1.96-1.496 0 0-.85.467-2.06 1.136-.47-1.631-.84-3.216-.74-3.856 0 0-.74 2.966-.99 4.825-.21.117-.42.236-.63.356-.55-.916-1.38-2.327-1.96-3.457.16-.236.32-.446.47-.62 0 0-.2.19-.52.513-.29-.563-.5-1.048-.58-1.347 0 0 .1.671.27 1.653-.59.598-1.46 1.472-2.39 2.452-.47-1.037-.89-1.916-1.06-2.204 0 0 .26 1.082.65 2.637-2 2.118-4.17 4.578-4.66 5.741 0 0-.59-3.15.08-5.027 0 0-3.36 4.237-3.77 5.071 0 0 2.75-7.147 2.97-8.593 0 0-2.74 3.186-5.27 6.44.83-1.735 1.95-3.525 3.37-4.776 0 0-4.7 3.323-6.6 6.206 0 0 3.37-8.236 5.39-10.686 0 0-6.04 5.444-8.02 9.21 0 0 3.83-12.245 5.96-15.112 0 0-7.33 8.882-7.99 10.675 0 0 .48-10.735 1.46-14.152 0 0-5.17 13.758-5.41 18.167 0 0-1.61-6.226-1.53-9.886 0 0-2.06 8.168-2.21 9.788 0 0-1.68-15.155-2.36-16.586 0 0-.47 7.36-1.18 13.808-1.18 1.276-2.6 3.003-3.24 4.499 0 0 .49-2.69 1.16-5.182.36-.223.72-.436 1.1-.635 0 0-.4.171-1.05.468.39-1.426.83-2.765 1.26-3.471 0 0-1.8 2.113-3.33 4.441-.43.21-.89.436-1.37.677.3-1.623.7-3.658 1.12-5.232.54-.498 1.05-.931 1.51-1.262 0 0-.52.281-1.36.758.2-.705.41-1.28.62-1.624 0 0-.58.867-1.3 2.011-.88.502-1.98 1.142-3.16 1.864-.03-1.42-.01-2.895.15-3.571 0 0-.65 1.973-1.29 4.271-.68.426-1.37.872-2.06 1.327a8.713 8.713 0 0 1-.02-.867s-.12.439-.28 1.073c-.26.171-.51.343-.76.516.14-1.763.27-3.528.25-4.044 2.05-3.069 4.33-6.171 5.99-7.462 0 0-12.85 9.111-14.04 10.913 0 0 1.28-10.639 3.11-14.063 0 0-9.39 13.838-10 18.211 0 0-2.45-6.089-2.15-9.713 0 0-3.86 8.171-4.19 9.78 0 0 1.5-13.797 1.22-16.593 0 0-3.27 6.145-6.16 12.421.65-3.349 1.76-6.803 3.64-9.213 0 0-6.6 6.398-8.55 11.961 0 0 2.06-15.9 4.43-20.625 0 0-7.94 10.491-9.64 17.761 0 0 1.04-23.646 3.42-29.178 0 0-8.61 17.129-8.93 20.591 0 0-4.05-20.742-3.9-27.341 0 0-2.66 26.563-1.09 35.083 0 0-5.58-12.041-7.11-19.115 0 0 .16 15.775.63 18.905 0 0-9.78-29.296-11.6-32.063 0 0 2.53 14.222 4.24 26.68-1.45 2.458-3.13 5.791-3.56 8.675 0 0-.91-13.247.27-17.03 0 0-4.84 9.191-5.32 15.181 0 0-1.58-16.014-.55-19.529 0 0-4.15 11.723-4.16 14.022 0 0-3.05-10.549-3.125-13.456 0 0-.822 14.086.31 19.643 0 0-3.266-6.995-3.97-10.514 0 0-.022 9.019.211 11.069 0 0-2.152-13.916-2.699-15.885Z" style="fill:#f3f4f6;fill-rule:nonzero" transform="translate(-375.435 -207.647) scale(.37878)"/><path d="M991.347 574.821s-.405 17.1 0 26.177h176.543l40.83.001h81.3c-.01-9.086-.6-32.831-.6-32.831-.46 1.99-1.96 15.988-1.96 15.988.13-2.058-.3-11.067-.3-11.067-.54 3.547-3.49 10.681-3.49 10.681.88-5.603-.59-19.638-.59-19.638.06 2.908-2.5 13.583-2.5 13.583-.11-2.297-4.81-13.822-4.81-13.822 1.19 3.464.36 19.533.36 19.533-.76-5.962-6.02-14.928-6.02-14.928 1.36 3.727 1.05 17.001 1.05 17.001-.56-2.863-2.39-6.117-3.95-8.509 1.13-12.52 3.01-26.841 3.01-26.841-1.7 2.846-10.11 32.549-10.11 32.549.33-3.148-.25-18.915-.25-18.915-1.19 7.136-6.22 19.413-6.22 19.413 1.18-8.582-2.7-34.998-2.7-34.998.45 6.585-2.64 27.487-2.64 27.487-.48-3.444-9.87-20.171-9.87-20.171 2.63 5.419 4.76 28.995 4.76 28.995-2.03-7.188-10.45-17.313-10.45-17.313 2.58 4.615 5.38 20.407 5.38 20.407-2.21-5.47-9.09-11.567-9.09-11.567 1.99 2.322 3.26 5.724 4.06 9.041-3.17-6.141-6.73-12.134-6.73-12.134-.15 2.805 1.98 16.521 1.98 16.521-.4-1.593-4.63-9.583-4.63-9.583.46 3.607-1.7 9.799-1.7 9.799-.81-4.341-10.83-17.745-10.83-17.745 1.98 3.338 3.76 13.91 3.76 13.91-1.27-1.748-14.53-10.276-14.53-10.276 3.89 2.76 11.48 14.716 11.48 14.716-1.36-1.345-3.68-2.895-6.06-4.319-.55-1.883-.95-3.202-.95-3.202 0 .36.12 1.494.28 2.805-1.21-.706-2.41-1.37-3.49-1.952-.57-1.661-1.05-2.909-1.05-2.909.15.502.23 1.457.28 2.502-2.01-1.06-3.45-1.755-3.45-1.755 1.01.653 2.25 1.745 3.49 2.98.05 1.675.02 3.228.02 3.228-.37-1.175-4.66-7.065-4.66-7.065.64.972 1.43 3.891 2.01 6.325-.9-.376-1.63-.666-2.06-.837-1.37-1.746-2.65-3.123-2.65-3.123 1.29 1.905 2.88 8.7 2.88 8.7-.71-1.465-2.22-3.127-3.45-4.349-1.01-6.41-1.81-13.741-1.81-13.741-.62 1.459-1.6 16.674-1.6 16.674-.23-1.612-2.66-9.68-2.66-9.68.25 3.654-1.07 9.946-1.07 9.946-.45-4.395-6.25-17.908-6.25-17.908 1.15 3.37 2.12 14.072 2.12 14.072-.74-1.762-8.48-10.308-8.48-10.308 2.27 2.77 6.65 14.831 6.65 14.831-2.15-3.675-8.43-8.843-8.43-8.843 2.13 2.358 5.87 10.435 5.87 10.435-2.02-2.796-6.87-5.905-6.87-5.905 1.47 1.185 2.67 2.925 3.59 4.621-2.68-3.138-5.57-6.199-5.57-6.199.16.786 1.15 3.241 2.02 5.304-.21.094-.49.226-.83.387-.94-1.12-1.82-2.137-1.82-2.137.33.811.43 1.878.44 2.82-.4.201-.82.419-1.24.645-.36-.43-.78-.896-1.24-1.383.85-1.248 1.8-2.459 2.58-2.986 0 0-1.68 1.015-3.41 2.123-1.13-1.15-2.36-2.331-3.38-3.281l.07-.179s-.03.053-.1.15c-1.23-1.149-2.13-1.956-2.13-1.956.53.56 1.15 1.519 1.74 2.553-.38.58-.93 1.444-1.48 2.386-2.81-1.458-6.09-3.061-6.09-3.061 1.33.708 3.52 2.607 5.37 4.319-.2.374-.39.746-.57 1.105-.99-.461-2.01-.898-2.91-1.271a2.24 2.24 0 0 1-.1-.482s-.06.145-.16.375c-.71-.296-1.34-.545-1.8-.724-.14-1.151-.3-2.179-.46-2.609 0 0-1.31 2.689-2.38 5.433.05-1.462.36-2.971 1.22-4.027 0 0-3.23 2.81-3.83 5.241 0 0-.36-6.936.56-9.003 0 0-3.61 4.597-3.89 7.771 0 0-1.73-10.307-.88-12.725 0 0-3.35 7.493-3.2 9.002 0 0-4.42-9.026-4.98-11.902 0 0 1.06 11.584 2.82 15.292 0 0-4.46-5.228-6.05-8.306 0 0 1.65 6.874 2.24 8.236 0 0-8.63-12.734-9.97-13.934 0 0 2.89 6.189 5.12 11.613-.61 1.076-1.26 2.533-1.23 3.792 0 0-1.84-5.77-1.52-7.422 0 0-1.08 2.259-1.5 4.49-.23.105-.48.218-.74.341-.24-.73-.52-1.607-.79-2.491.74-.643 1.42-1.177 1.96-1.496 0 0-.85.467-2.06 1.136-.47-1.631-.84-3.216-.74-3.856 0 0-.74 2.966-.99 4.825-.21.117-.42.236-.63.356-.55-.916-1.38-2.327-1.96-3.457.16-.236.32-.446.47-.62 0 0-.2.19-.52.513-.29-.563-.5-1.048-.58-1.347 0 0 .1.671.27 1.653-.59.598-1.46 1.472-2.39 2.452-.47-1.037-.89-1.916-1.06-2.204 0 0 .26 1.082.65 2.637-2 2.118-4.17 4.578-4.66 5.741 0 0-.59-3.15.08-5.027 0 0-3.36 4.237-3.77 5.071 0 0 2.75-7.147 2.97-8.593 0 0-2.74 3.186-5.27 6.44.83-1.735 1.95-3.525 3.37-4.776 0 0-4.7 3.323-6.6 6.206 0 0 3.37-8.236 5.39-10.686 0 0-6.04 5.444-8.02 9.21 0 0 3.83-12.245 5.96-15.112 0 0-7.33 8.882-7.99 10.675 0 0 .48-10.735 1.46-14.152 0 0-5.17 13.758-5.41 18.167 0 0-1.61-6.226-1.53-9.886 0 0-2.06 8.168-2.21 9.788 0 0-1.68-15.155-2.36-16.586 0 0-.47 7.36-1.18 13.808-1.18 1.276-2.6 3.003-3.24 4.499 0 0 .49-2.69 1.16-5.182.36-.223.72-.436 1.1-.635 0 0-.4.171-1.05.468.39-1.426.83-2.765 1.26-3.471 0 0-1.8 2.113-3.33 4.441-.43.21-.89.436-1.37.677.3-1.623.7-3.658 1.12-5.232.54-.498 1.05-.931 1.51-1.262 0 0-.52.281-1.36.758.2-.705.41-1.28.62-1.624 0 0-.58.867-1.3 2.011-.88.502-1.98 1.142-3.16 1.864-.03-1.42-.01-2.895.15-3.571 0 0-.65 1.973-1.29 4.271-.68.426-1.37.872-2.06 1.327a8.713 8.713 0 0 1-.02-.867s-.12.439-.28 1.073c-.26.171-.51.343-.76.516.14-1.763.27-3.528.25-4.044 2.05-3.069 4.33-6.171 5.99-7.462 0 0-12.85 9.111-14.04 10.913 0 0 1.28-10.639 3.11-14.063 0 0-9.39 13.838-10 18.211 0 0-2.45-6.089-2.15-9.713 0 0-3.86 8.171-4.19 9.78 0 0 1.5-13.797 1.22-16.593 0 0-3.27 6.145-6.16 12.421.65-3.349 1.76-6.803 3.64-9.213 0 0-6.6 6.398-8.55 11.961 0 0 2.06-15.9 4.43-20.625 0 0-7.94 10.491-9.64 17.761 0 0 1.04-23.646 3.42-29.178 0 0-8.61 17.129-8.93 20.591 0 0-4.05-20.742-3.9-27.341 0 0-2.66 26.563-1.09 35.083 0 0-5.58-12.041-7.11-19.115 0 0 .16 15.775.63 18.905 0 0-9.78-29.296-11.6-32.063 0 0 2.53 14.222 4.24 26.68-1.45 2.458-3.13 5.791-3.56 8.675 0 0-.91-13.247.27-17.03 0 0-4.84 9.191-5.32 15.181 0 0-1.58-16.014-.55-19.529 0 0-4.15 11.723-4.16 14.022 0 0-3.05-10.549-3.125-13.456 0 0-.822 14.086.31 19.643 0 0-3.266-6.995-3.97-10.514 0 0-.022 9.019.211 11.069 0 0-2.152-13.916-2.699-15.885Z" style="fill:#f3f4f6;fill-rule:nonzero" transform="translate(-262.641 -207.647) scale(.37878)"/><path d="M991.347 574.821s-.405 17.1 0 26.177h176.543l40.83.001h81.3c-.01-9.086-.6-32.831-.6-32.831-.46 1.99-1.96 15.988-1.96 15.988.13-2.058-.3-11.067-.3-11.067-.54 3.547-3.49 10.681-3.49 10.681.88-5.603-.59-19.638-.59-19.638.06 2.908-2.5 13.583-2.5 13.583-.11-2.297-4.81-13.822-4.81-13.822 1.19 3.464.36 19.533.36 19.533-.76-5.962-6.02-14.928-6.02-14.928 1.36 3.727 1.05 17.001 1.05 17.001-.56-2.863-2.39-6.117-3.95-8.509 1.13-12.52 3.01-26.841 3.01-26.841-1.7 2.846-10.11 32.549-10.11 32.549.33-3.148-.25-18.915-.25-18.915-1.19 7.136-6.22 19.413-6.22 19.413 1.18-8.582-2.7-34.998-2.7-34.998.45 6.585-2.64 27.487-2.64 27.487-.48-3.444-9.87-20.171-9.87-20.171 2.63 5.419 4.76 28.995 4.76 28.995-2.03-7.188-10.45-17.313-10.45-17.313 2.58 4.615 5.38 20.407 5.38 20.407-2.21-5.47-9.09-11.567-9.09-11.567 1.99 2.322 3.26 5.724 4.06 9.041-3.17-6.141-6.73-12.134-6.73-12.134-.15 2.805 1.98 16.521 1.98 16.521-.4-1.593-4.63-9.583-4.63-9.583.46 3.607-1.7 9.799-1.7 9.799-.81-4.341-10.83-17.745-10.83-17.745 1.98 3.338 3.76 13.91 3.76 13.91-1.27-1.748-14.53-10.276-14.53-10.276 3.89 2.76 11.48 14.716 11.48 14.716-1.36-1.345-3.68-2.895-6.06-4.319-.55-1.883-.95-3.202-.95-3.202 0 .36.12 1.494.28 2.805-1.21-.706-2.41-1.37-3.49-1.952-.57-1.661-1.05-2.909-1.05-2.909.15.502.23 1.457.28 2.502-2.01-1.06-3.45-1.755-3.45-1.755 1.01.653 2.25 1.745 3.49 2.98.05 1.675.02 3.228.02 3.228-.37-1.175-4.66-7.065-4.66-7.065.64.972 1.43 3.891 2.01 6.325-.9-.376-1.63-.666-2.06-.837-1.37-1.746-2.65-3.123-2.65-3.123 1.29 1.905 2.88 8.7 2.88 8.7-.71-1.465-2.22-3.127-3.45-4.349-1.01-6.41-1.81-13.741-1.81-13.741-.62 1.459-1.6 16.674-1.6 16.674-.23-1.612-2.66-9.68-2.66-9.68.25 3.654-1.07 9.946-1.07 9.946-.45-4.395-6.25-17.908-6.25-17.908 1.15 3.37 2.12 14.072 2.12 14.072-.74-1.762-8.48-10.308-8.48-10.308 2.27 2.77 6.65 14.831 6.65 14.831-2.15-3.675-8.43-8.843-8.43-8.843 2.13 2.358 5.87 10.435 5.87 10.435-2.02-2.796-6.87-5.905-6.87-5.905 1.47 1.185 2.67 2.925 3.59 4.621-2.68-3.138-5.57-6.199-5.57-6.199.16.786 1.15 3.241 2.02 5.304-.21.094-.49.226-.83.387-.94-1.12-1.82-2.137-1.82-2.137.33.811.43 1.878.44 2.82-.4.201-.82.419-1.24.645-.36-.43-.78-.896-1.24-1.383.85-1.248 1.8-2.459 2.58-2.986 0 0-1.68 1.015-3.41 2.123-1.13-1.15-2.36-2.331-3.38-3.281l.07-.179s-.03.053-.1.15c-1.23-1.149-2.13-1.956-2.13-1.956.53.56 1.15 1.519 1.74 2.553-.38.58-.93 1.444-1.48 2.386-2.81-1.458-6.09-3.061-6.09-3.061 1.33.708 3.52 2.607 5.37 4.319-.2.374-.39.746-.57 1.105-.99-.461-2.01-.898-2.91-1.271a2.24 2.24 0 0 1-.1-.482s-.06.145-.16.375c-.71-.296-1.34-.545-1.8-.724-.14-1.151-.3-2.179-.46-2.609 0 0-1.31 2.689-2.38 5.433.05-1.462.36-2.971 1.22-4.027 0 0-3.23 2.81-3.83 5.241 0 0-.36-6.936.56-9.003 0 0-3.61 4.597-3.89 7.771 0 0-1.73-10.307-.88-12.725 0 0-3.35 7.493-3.2 9.002 0 0-4.42-9.026-4.98-11.902 0 0 1.06 11.584 2.82 15.292 0 0-4.46-5.228-6.05-8.306 0 0 1.65 6.874 2.24 8.236 0 0-8.63-12.734-9.97-13.934 0 0 2.89 6.189 5.12 11.613-.61 1.076-1.26 2.533-1.23 3.792 0 0-1.84-5.77-1.52-7.422 0 0-1.08 2.259-1.5 4.49-.23.105-.48.218-.74.341-.24-.73-.52-1.607-.79-2.491.74-.643 1.42-1.177 1.96-1.496 0 0-.85.467-2.06 1.136-.47-1.631-.84-3.216-.74-3.856 0 0-.74 2.966-.99 4.825-.21.117-.42.236-.63.356-.55-.916-1.38-2.327-1.96-3.457.16-.236.32-.446.47-.62 0 0-.2.19-.52.513-.29-.563-.5-1.048-.58-1.347 0 0 .1.671.27 1.653-.59.598-1.46 1.472-2.39 2.452-.47-1.037-.89-1.916-1.06-2.204 0 0 .26 1.082.65 2.637-2 2.118-4.17 4.578-4.66 5.741 0 0-.59-3.15.08-5.027 0 0-3.36 4.237-3.77 5.071 0 0 2.75-7.147 2.97-8.593 0 0-2.74 3.186-5.27 6.44.83-1.735 1.95-3.525 3.37-4.776 0 0-4.7 3.323-6.6 6.206 0 0 3.37-8.236 5.39-10.686 0 0-6.04 5.444-8.02 9.21 0 0 3.83-12.245 5.96-15.112 0 0-7.33 8.882-7.99 10.675 0 0 .48-10.735 1.46-14.152 0 0-5.17 13.758-5.41 18.167 0 0-1.61-6.226-1.53-9.886 0 0-2.06 8.168-2.21 9.788 0 0-1.68-15.155-2.36-16.586 0 0-.47 7.36-1.18 13.808-1.18 1.276-2.6 3.003-3.24 4.499 0 0 .49-2.69 1.16-5.182.36-.223.72-.436 1.1-.635 0 0-.4.171-1.05.468.39-1.426.83-2.765 1.26-3.471 0 0-1.8 2.113-3.33 4.441-.43.21-.89.436-1.37.677.3-1.623.7-3.658 1.12-5.232.54-.498 1.05-.931 1.51-1.262 0 0-.52.281-1.36.758.2-.705.41-1.28.62-1.624 0 0-.58.867-1.3 2.011-.88.502-1.98 1.142-3.16 1.864-.03-1.42-.01-2.895.15-3.571 0 0-.65 1.973-1.29 4.271-.68.426-1.37.872-2.06 1.327a8.713 8.713 0 0 1-.02-.867s-.12.439-.28 1.073c-.26.171-.51.343-.76.516.14-1.763.27-3.528.25-4.044 2.05-3.069 4.33-6.171 5.99-7.462 0 0-12.85 9.111-14.04 10.913 0 0 1.28-10.639 3.11-14.063 0 0-9.39 13.838-10 18.211 0 0-2.45-6.089-2.15-9.713 0 0-3.86 8.171-4.19 9.78 0 0 1.5-13.797 1.22-16.593 0 0-3.27 6.145-6.16 12.421.65-3.349 1.76-6.803 3.64-9.213 0 0-6.6 6.398-8.55 11.961 0 0 2.06-15.9 4.43-20.625 0 0-7.94 10.491-9.64 17.761 0 0 1.04-23.646 3.42-29.178 0 0-8.61 17.129-8.93 20.591 0 0-4.05-20.742-3.9-27.341 0 0-2.66 26.563-1.09 35.083 0 0-5.58-12.041-7.11-19.115 0 0 .16 15.775.63 18.905 0 0-9.78-29.296-11.6-32.063 0 0 2.53 14.222 4.24 26.68-1.45 2.458-3.13 5.791-3.56 8.675 0 0-.91-13.247.27-17.03 0 0-4.84 9.191-5.32 15.181 0 0-1.58-16.014-.55-19.529 0 0-4.15 11.723-4.16 14.022 0 0-3.05-10.549-3.125-13.456 0 0-.822 14.086.31 19.643 0 0-3.266-6.995-3.97-10.514 0 0-.022 9.019.211 11.069 0 0-2.152-13.916-2.699-15.885Z" style="fill:#f3f4f6;fill-rule:nonzero" transform="translate(-150.849 -207.647) scale(.37878)"/><path d="M991.347 574.821s-.405 17.1 0 26.177h176.543l40.83.001h81.3c-.01-9.086-.6-32.831-.6-32.831-.46 1.99-1.96 15.988-1.96 15.988.13-2.058-.3-11.067-.3-11.067-.54 3.547-3.49 10.681-3.49 10.681.88-5.603-.59-19.638-.59-19.638.06 2.908-2.5 13.583-2.5 13.583-.11-2.297-4.81-13.822-4.81-13.822 1.19 3.464.36 19.533.36 19.533-.76-5.962-6.02-14.928-6.02-14.928 1.36 3.727 1.05 17.001 1.05 17.001-.56-2.863-2.39-6.117-3.95-8.509 1.13-12.52 3.01-26.841 3.01-26.841-1.7 2.846-10.11 32.549-10.11 32.549.33-3.148-.25-18.915-.25-18.915-1.19 7.136-6.22 19.413-6.22 19.413 1.18-8.582-2.7-34.998-2.7-34.998.45 6.585-2.64 27.487-2.64 27.487-.48-3.444-9.87-20.171-9.87-20.171 2.63 5.419 4.76 28.995 4.76 28.995-2.03-7.188-10.45-17.313-10.45-17.313 2.58 4.615 5.38 20.407 5.38 20.407-2.21-5.47-9.09-11.567-9.09-11.567 1.99 2.322 3.26 5.724 4.06 9.041-3.17-6.141-6.73-12.134-6.73-12.134-.15 2.805 1.98 16.521 1.98 16.521-.4-1.593-4.63-9.583-4.63-9.583.46 3.607-1.7 9.799-1.7 9.799-.81-4.341-10.83-17.745-10.83-17.745 1.98 3.338 3.76 13.91 3.76 13.91-1.27-1.748-14.53-10.276-14.53-10.276 3.89 2.76 11.48 14.716 11.48 14.716-1.36-1.345-3.68-2.895-6.06-4.319-.55-1.883-.95-3.202-.95-3.202 0 .36.12 1.494.28 2.805-1.21-.706-2.41-1.37-3.49-1.952-.57-1.661-1.05-2.909-1.05-2.909.15.502.23 1.457.28 2.502-2.01-1.06-3.45-1.755-3.45-1.755 1.01.653 2.25 1.745 3.49 2.98.05 1.675.02 3.228.02 3.228-.37-1.175-4.66-7.065-4.66-7.065.64.972 1.43 3.891 2.01 6.325-.9-.376-1.63-.666-2.06-.837-1.37-1.746-2.65-3.123-2.65-3.123 1.29 1.905 2.88 8.7 2.88 8.7-.71-1.465-2.22-3.127-3.45-4.349-1.01-6.41-1.81-13.741-1.81-13.741-.62 1.459-1.6 16.674-1.6 16.674-.23-1.612-2.66-9.68-2.66-9.68.25 3.654-1.07 9.946-1.07 9.946-.45-4.395-6.25-17.908-6.25-17.908 1.15 3.37 2.12 14.072 2.12 14.072-.74-1.762-8.48-10.308-8.48-10.308 2.27 2.77 6.65 14.831 6.65 14.831-2.15-3.675-8.43-8.843-8.43-8.843 2.13 2.358 5.87 10.435 5.87 10.435-2.02-2.796-6.87-5.905-6.87-5.905 1.47 1.185 2.67 2.925 3.59 4.621-2.68-3.138-5.57-6.199-5.57-6.199.16.786 1.15 3.241 2.02 5.304-.21.094-.49.226-.83.387-.94-1.12-1.82-2.137-1.82-2.137.33.811.43 1.878.44 2.82-.4.201-.82.419-1.24.645-.36-.43-.78-.896-1.24-1.383.85-1.248 1.8-2.459 2.58-2.986 0 0-1.68 1.015-3.41 2.123-1.13-1.15-2.36-2.331-3.38-3.281l.07-.179s-.03.053-.1.15c-1.23-1.149-2.13-1.956-2.13-1.956.53.56 1.15 1.519 1.74 2.553-.38.58-.93 1.444-1.48 2.386-2.81-1.458-6.09-3.061-6.09-3.061 1.33.708 3.52 2.607 5.37 4.319-.2.374-.39.746-.57 1.105-.99-.461-2.01-.898-2.91-1.271a2.24 2.24 0 0 1-.1-.482s-.06.145-.16.375c-.71-.296-1.34-.545-1.8-.724-.14-1.151-.3-2.179-.46-2.609 0 0-1.31 2.689-2.38 5.433.05-1.462.36-2.971 1.22-4.027 0 0-3.23 2.81-3.83 5.241 0 0-.36-6.936.56-9.003 0 0-3.61 4.597-3.89 7.771 0 0-1.73-10.307-.88-12.725 0 0-3.35 7.493-3.2 9.002 0 0-4.42-9.026-4.98-11.902 0 0 1.06 11.584 2.82 15.292 0 0-4.46-5.228-6.05-8.306 0 0 1.65 6.874 2.24 8.236 0 0-8.63-12.734-9.97-13.934 0 0 2.89 6.189 5.12 11.613-.61 1.076-1.26 2.533-1.23 3.792 0 0-1.84-5.77-1.52-7.422 0 0-1.08 2.259-1.5 4.49-.23.105-.48.218-.74.341-.24-.73-.52-1.607-.79-2.491.74-.643 1.42-1.177 1.96-1.496 0 0-.85.467-2.06 1.136-.47-1.631-.84-3.216-.74-3.856 0 0-.74 2.966-.99 4.825-.21.117-.42.236-.63.356-.55-.916-1.38-2.327-1.96-3.457.16-.236.32-.446.47-.62 0 0-.2.19-.52.513-.29-.563-.5-1.048-.58-1.347 0 0 .1.671.27 1.653-.59.598-1.46 1.472-2.39 2.452-.47-1.037-.89-1.916-1.06-2.204 0 0 .26 1.082.65 2.637-2 2.118-4.17 4.578-4.66 5.741 0 0-.59-3.15.08-5.027 0 0-3.36 4.237-3.77 5.071 0 0 2.75-7.147 2.97-8.593 0 0-2.74 3.186-5.27 6.44.83-1.735 1.95-3.525 3.37-4.776 0 0-4.7 3.323-6.6 6.206 0 0 3.37-8.236 5.39-10.686 0 0-6.04 5.444-8.02 9.21 0 0 3.83-12.245 5.96-15.112 0 0-7.33 8.882-7.99 10.675 0 0 .48-10.735 1.46-14.152 0 0-5.17 13.758-5.41 18.167 0 0-1.61-6.226-1.53-9.886 0 0-2.06 8.168-2.21 9.788 0 0-1.68-15.155-2.36-16.586 0 0-.47 7.36-1.18 13.808-1.18 1.276-2.6 3.003-3.24 4.499 0 0 .49-2.69 1.16-5.182.36-.223.72-.436 1.1-.635 0 0-.4.171-1.05.468.39-1.426.83-2.765 1.26-3.471 0 0-1.8 2.113-3.33 4.441-.43.21-.89.436-1.37.677.3-1.623.7-3.658 1.12-5.232.54-.498 1.05-.931 1.51-1.262 0 0-.52.281-1.36.758.2-.705.41-1.28.62-1.624 0 0-.58.867-1.3 2.011-.88.502-1.98 1.142-3.16 1.864-.03-1.42-.01-2.895.15-3.571 0 0-.65 1.973-1.29 4.271-.68.426-1.37.872-2.06 1.327a8.713 8.713 0 0 1-.02-.867s-.12.439-.28 1.073c-.26.171-.51.343-.76.516.14-1.763.27-3.528.25-4.044 2.05-3.069 4.33-6.171 5.99-7.462 0 0-12.85 9.111-14.04 10.913 0 0 1.28-10.639 3.11-14.063 0 0-9.39 13.838-10 18.211 0 0-2.45-6.089-2.15-9.713 0 0-3.86 8.171-4.19 9.78 0 0 1.5-13.797 1.22-16.593 0 0-3.27 6.145-6.16 12.421.65-3.349 1.76-6.803 3.64-9.213 0 0-6.6 6.398-8.55 11.961 0 0 2.06-15.9 4.43-20.625 0 0-7.94 10.491-9.64 17.761 0 0 1.04-23.646 3.42-29.178 0 0-8.61 17.129-8.93 20.591 0 0-4.05-20.742-3.9-27.341 0 0-2.66 26.563-1.09 35.083 0 0-5.58-12.041-7.11-19.115 0 0 .16 15.775.63 18.905 0 0-9.78-29.296-11.6-32.063 0 0 2.53 14.222 4.24 26.68-1.45 2.458-3.13 5.791-3.56 8.675 0 0-.91-13.247.27-17.03 0 0-4.84 9.191-5.32 15.181 0 0-1.58-16.014-.55-19.529 0 0-4.15 11.723-4.16 14.022 0 0-3.05-10.549-3.125-13.456 0 0-.822 14.086.31 19.643 0 0-3.266-6.995-3.97-10.514 0 0-.022 9.019.211 11.069 0 0-2.152-13.916-2.699-15.885Z" style="fill:#f3f4f6;fill-rule:nonzero" transform="translate(-37.985 -207.647) scale(.37878)"/><path d="M991.347 574.821s-.405 17.1 0 26.177h176.543l40.83.001h81.3c-.01-9.086-.6-32.831-.6-32.831-.46 1.99-1.96 15.988-1.96 15.988.13-2.058-.3-11.067-.3-11.067-.54 3.547-3.49 10.681-3.49 10.681.88-5.603-.59-19.638-.59-19.638.06 2.908-2.5 13.583-2.5 13.583-.11-2.297-4.81-13.822-4.81-13.822 1.19 3.464.36 19.533.36 19.533-.76-5.962-6.02-14.928-6.02-14.928 1.36 3.727 1.05 17.001 1.05 17.001-.56-2.863-2.39-6.117-3.95-8.509 1.13-12.52 3.01-26.841 3.01-26.841-1.7 2.846-10.11 32.549-10.11 32.549.33-3.148-.25-18.915-.25-18.915-1.19 7.136-6.22 19.413-6.22 19.413 1.18-8.582-2.7-34.998-2.7-34.998.45 6.585-2.64 27.487-2.64 27.487-.48-3.444-9.87-20.171-9.87-20.171 2.63 5.419 4.76 28.995 4.76 28.995-2.03-7.188-10.45-17.313-10.45-17.313 2.58 4.615 5.38 20.407 5.38 20.407-2.21-5.47-9.09-11.567-9.09-11.567 1.99 2.322 3.26 5.724 4.06 9.041-3.17-6.141-6.73-12.134-6.73-12.134-.15 2.805 1.98 16.521 1.98 16.521-.4-1.593-4.63-9.583-4.63-9.583.46 3.607-1.7 9.799-1.7 9.799-.81-4.341-10.83-17.745-10.83-17.745 1.98 3.338 3.76 13.91 3.76 13.91-1.27-1.748-14.53-10.276-14.53-10.276 3.89 2.76 11.48 14.716 11.48 14.716-1.36-1.345-3.68-2.895-6.06-4.319-.55-1.883-.95-3.202-.95-3.202 0 .36.12 1.494.28 2.805-1.21-.706-2.41-1.37-3.49-1.952-.57-1.661-1.05-2.909-1.05-2.909.15.502.23 1.457.28 2.502-2.01-1.06-3.45-1.755-3.45-1.755 1.01.653 2.25 1.745 3.49 2.98.05 1.675.02 3.228.02 3.228-.37-1.175-4.66-7.065-4.66-7.065.64.972 1.43 3.891 2.01 6.325-.9-.376-1.63-.666-2.06-.837-1.37-1.746-2.65-3.123-2.65-3.123 1.29 1.905 2.88 8.7 2.88 8.7-.71-1.465-2.22-3.127-3.45-4.349-1.01-6.41-1.81-13.741-1.81-13.741-.62 1.459-1.6 16.674-1.6 16.674-.23-1.612-2.66-9.68-2.66-9.68.25 3.654-1.07 9.946-1.07 9.946-.45-4.395-6.25-17.908-6.25-17.908 1.15 3.37 2.12 14.072 2.12 14.072-.74-1.762-8.48-10.308-8.48-10.308 2.27 2.77 6.65 14.831 6.65 14.831-2.15-3.675-8.43-8.843-8.43-8.843 2.13 2.358 5.87 10.435 5.87 10.435-2.02-2.796-6.87-5.905-6.87-5.905 1.47 1.185 2.67 2.925 3.59 4.621-2.68-3.138-5.57-6.199-5.57-6.199.16.786 1.15 3.241 2.02 5.304-.21.094-.49.226-.83.387-.94-1.12-1.82-2.137-1.82-2.137.33.811.43 1.878.44 2.82-.4.201-.82.419-1.24.645-.36-.43-.78-.896-1.24-1.383.85-1.248 1.8-2.459 2.58-2.986 0 0-1.68 1.015-3.41 2.123-1.13-1.15-2.36-2.331-3.38-3.281l.07-.179s-.03.053-.1.15c-1.23-1.149-2.13-1.956-2.13-1.956.53.56 1.15 1.519 1.74 2.553-.38.58-.93 1.444-1.48 2.386-2.81-1.458-6.09-3.061-6.09-3.061 1.33.708 3.52 2.607 5.37 4.319-.2.374-.39.746-.57 1.105-.99-.461-2.01-.898-2.91-1.271a2.24 2.24 0 0 1-.1-.482s-.06.145-.16.375c-.71-.296-1.34-.545-1.8-.724-.14-1.151-.3-2.179-.46-2.609 0 0-1.31 2.689-2.38 5.433.05-1.462.36-2.971 1.22-4.027 0 0-3.23 2.81-3.83 5.241 0 0-.36-6.936.56-9.003 0 0-3.61 4.597-3.89 7.771 0 0-1.73-10.307-.88-12.725 0 0-3.35 7.493-3.2 9.002 0 0-4.42-9.026-4.98-11.902 0 0 1.06 11.584 2.82 15.292 0 0-4.46-5.228-6.05-8.306 0 0 1.65 6.874 2.24 8.236 0 0-8.63-12.734-9.97-13.934 0 0 2.89 6.189 5.12 11.613-.61 1.076-1.26 2.533-1.23 3.792 0 0-1.84-5.77-1.52-7.422 0 0-1.08 2.259-1.5 4.49-.23.105-.48.218-.74.341-.24-.73-.52-1.607-.79-2.491.74-.643 1.42-1.177 1.96-1.496 0 0-.85.467-2.06 1.136-.47-1.631-.84-3.216-.74-3.856 0 0-.74 2.966-.99 4.825-.21.117-.42.236-.63.356-.55-.916-1.38-2.327-1.96-3.457.16-.236.32-.446.47-.62 0 0-.2.19-.52.513-.29-.563-.5-1.048-.58-1.347 0 0 .1.671.27 1.653-.59.598-1.46 1.472-2.39 2.452-.47-1.037-.89-1.916-1.06-2.204 0 0 .26 1.082.65 2.637-2 2.118-4.17 4.578-4.66 5.741 0 0-.59-3.15.08-5.027 0 0-3.36 4.237-3.77 5.071 0 0 2.75-7.147 2.97-8.593 0 0-2.74 3.186-5.27 6.44.83-1.735 1.95-3.525 3.37-4.776 0 0-4.7 3.323-6.6 6.206 0 0 3.37-8.236 5.39-10.686 0 0-6.04 5.444-8.02 9.21 0 0 3.83-12.245 5.96-15.112 0 0-7.33 8.882-7.99 10.675 0 0 .48-10.735 1.46-14.152 0 0-5.17 13.758-5.41 18.167 0 0-1.61-6.226-1.53-9.886 0 0-2.06 8.168-2.21 9.788 0 0-1.68-15.155-2.36-16.586 0 0-.47 7.36-1.18 13.808-1.18 1.276-2.6 3.003-3.24 4.499 0 0 .49-2.69 1.16-5.182.36-.223.72-.436 1.1-.635 0 0-.4.171-1.05.468.39-1.426.83-2.765 1.26-3.471 0 0-1.8 2.113-3.33 4.441-.43.21-.89.436-1.37.677.3-1.623.7-3.658 1.12-5.232.54-.498 1.05-.931 1.51-1.262 0 0-.52.281-1.36.758.2-.705.41-1.28.62-1.624 0 0-.58.867-1.3 2.011-.88.502-1.98 1.142-3.16 1.864-.03-1.42-.01-2.895.15-3.571 0 0-.65 1.973-1.29 4.271-.68.426-1.37.872-2.06 1.327a8.713 8.713 0 0 1-.02-.867s-.12.439-.28 1.073c-.26.171-.51.343-.76.516.14-1.763.27-3.528.25-4.044 2.05-3.069 4.33-6.171 5.99-7.462 0 0-12.85 9.111-14.04 10.913 0 0 1.28-10.639 3.11-14.063 0 0-9.39 13.838-10 18.211 0 0-2.45-6.089-2.15-9.713 0 0-3.86 8.171-4.19 9.78 0 0 1.5-13.797 1.22-16.593 0 0-3.27 6.145-6.16 12.421.65-3.349 1.76-6.803 3.64-9.213 0 0-6.6 6.398-8.55 11.961 0 0 2.06-15.9 4.43-20.625 0 0-7.94 10.491-9.64 17.761 0 0 1.04-23.646 3.42-29.178 0 0-8.61 17.129-8.93 20.591 0 0-4.05-20.742-3.9-27.341 0 0-2.66 26.563-1.09 35.083 0 0-5.58-12.041-7.11-19.115 0 0 .16 15.775.63 18.905 0 0-9.78-29.296-11.6-32.063 0 0 2.53 14.222 4.24 26.68-1.45 2.458-3.13 5.791-3.56 8.675 0 0-.91-13.247.27-17.03 0 0-4.84 9.191-5.32 15.181 0 0-1.58-16.014-.55-19.529 0 0-4.15 11.723-4.16 14.022 0 0-3.05-10.549-3.125-13.456 0 0-.822 14.086.31 19.643 0 0-3.266-6.995-3.97-10.514 0 0-.022 9.019.211 11.069 0 0-2.152-13.916-2.699-15.885Z" style="fill:#f3f4f6;fill-rule:nonzero" transform="translate(74.714 -207.647) scale(.37878)"/></svg>